<svg width="183" height="60" viewBox="0 0 183 60" fill="none" xmlns="http://www.w3.org/2000/svg">
<g clip-path="url(#clip0_595_26896)">
<path d="M22 14.6248L22.125 14.1248C22.25 12.7498 23.625 11.7498 25 11.8748L41.125 13.9998C42.5 14.1248 43.5 15.4998 43.375 16.8748L39.875 43.7498C39.75 45.1248 38.375 46.1248 37 45.9998L34.625 45.7498" stroke="white" stroke-miterlimit="10"/>
<path d="M35 24.5C36.375 25.75 37.25 27.75 37 29.75C36.75 31.25 36.125 32.5 35 33.5" stroke="white" stroke-width="0.5" stroke-miterlimit="10"/>
<path d="M32.375 46.875H16.125C14.75 46.875 13.5 45.75 13.5 44.25V17.25C13.5 15.875 14.625 14.625 16.125 14.625H32.375C33.75 14.625 35 15.75 35 17.25V44.375C35 45.75 33.875 46.875 32.375 46.875Z" stroke="white" stroke-miterlimit="10"/>
<path d="M23.875 24.125L18.5 33.5C18.375 33.75 18.5 34.125 18.875 34.125H29.75C30.125 34.125 30.25 33.75 30.125 33.5L24.75 24.125C24.5 23.75 24.125 23.75 23.875 24.125Z" stroke="white" stroke-width="0.5" stroke-miterlimit="10"/>
<path d="M23.875 37.25L18.5 27.875C18.375 27.625 18.5 27.25 18.875 27.25H29.75C30.125 27.25 30.25 27.625 30.125 27.875L24.75 37.25C24.5 37.5 24.125 37.5 23.875 37.25Z" stroke="white" stroke-width="0.5" stroke-miterlimit="10"/>
<path d="M24.25 32.125C25.0094 32.125 25.625 31.5094 25.625 30.75C25.625 29.9906 25.0094 29.375 24.25 29.375C23.4906 29.375 22.875 29.9906 22.875 30.75C22.875 31.5094 23.4906 32.125 24.25 32.125Z" stroke="white" stroke-width="0.5" stroke-miterlimit="10"/>
</g>
<path d="M66.2158 31.668V40.5H64.3438L63.9838 39.468C62.9118 40.316 61.5758 40.74 59.9758 40.74C58.5358 40.74 57.2878 40.396 56.2318 39.708C55.1758 39.004 54.3678 38.004 53.8078 36.708C53.2478 35.412 52.9678 33.876 52.9678 32.1C52.9678 30.356 53.2718 28.836 53.8798 27.54C54.5038 26.244 55.3758 25.244 56.4958 24.54C57.6158 23.82 58.9278 23.46 60.4318 23.46C61.7118 23.46 62.8398 23.7 63.8158 24.18C64.8078 24.66 65.5278 25.332 65.9758 26.196L64.4878 27.588C64.0718 26.932 63.5198 26.436 62.8318 26.1C62.1598 25.764 61.3678 25.596 60.4558 25.596C58.9198 25.596 57.7278 26.164 56.8798 27.3C56.0318 28.436 55.6078 30.036 55.6078 32.1C55.6078 34.212 56.0158 35.852 56.8318 37.02C57.6478 38.172 58.7918 38.748 60.2638 38.748C60.9198 38.748 61.5358 38.66 62.1118 38.484C62.7038 38.292 63.2078 38.02 63.6238 37.668V33.564H59.7358V31.668H66.2158ZM79.3822 35.412H70.8382C70.9662 36.5 71.3102 37.324 71.8702 37.884C72.4462 38.444 73.2302 38.724 74.2222 38.724C75.6302 38.724 76.7662 38.172 77.6302 37.068L78.9502 38.34C78.4862 39.092 77.8222 39.684 76.9582 40.116C76.0942 40.532 75.1422 40.74 74.1022 40.74C72.3102 40.74 70.9102 40.196 69.9022 39.108C68.9102 38.004 68.4142 36.476 68.4142 34.524C68.4142 32.572 68.9182 31.044 69.9262 29.94C70.9342 28.82 72.3182 28.26 74.0782 28.26C75.7422 28.26 77.0382 28.812 77.9662 29.916C78.9102 31.004 79.3822 32.532 79.3822 34.5V35.412ZM77.1262 33.54C77.1262 32.5 76.8462 31.684 76.2862 31.092C75.7262 30.5 74.9582 30.204 73.9822 30.204C73.0702 30.204 72.3422 30.508 71.7982 31.116C71.2542 31.724 70.9262 32.588 70.8142 33.708H77.1262V33.54ZM86.207 40.74C85.087 40.74 84.207 40.404 83.567 39.732C82.943 39.044 82.631 38.1 82.631 36.9V30.324H80.471V28.5H82.631V25.332L84.911 24.66H85.007V28.5H88.439V30.324H85.007V36.612C85.007 37.396 85.159 37.972 85.463 38.34C85.783 38.708 86.263 38.892 86.903 38.892C87.543 38.892 88.111 38.796 88.607 38.604L88.751 40.308C88.159 40.596 87.311 40.74 86.207 40.74ZM96.8597 31.428C96.8597 30.068 96.8357 29.092 96.7877 28.5H99.0197C99.0837 29.14 99.1157 29.844 99.1157 30.612V30.852H99.1877C99.5077 30.036 100.012 29.404 100.7 28.956C101.404 28.492 102.228 28.26 103.172 28.26C103.428 28.26 103.66 28.284 103.868 28.332V30.252C103.756 30.22 103.508 30.204 103.124 30.204C102.42 30.204 101.764 30.412 101.156 30.828C100.564 31.228 100.092 31.78 99.7397 32.484C99.4037 33.172 99.2357 33.932 99.2357 34.764V40.5H96.8597V31.428ZM115.945 35.412H107.401C107.529 36.5 107.873 37.324 108.433 37.884C109.009 38.444 109.793 38.724 110.785 38.724C112.193 38.724 113.329 38.172 114.193 37.068L115.513 38.34C115.049 39.092 114.385 39.684 113.521 40.116C112.657 40.532 111.705 40.74 110.665 40.74C108.873 40.74 107.473 40.196 106.465 39.108C105.473 38.004 104.977 36.476 104.977 34.524C104.977 32.572 105.481 31.044 106.489 29.94C107.497 28.82 108.881 28.26 110.641 28.26C112.305 28.26 113.601 28.812 114.529 29.916C115.473 31.004 115.945 32.532 115.945 34.5V35.412ZM113.689 33.54C113.689 32.5 113.409 31.684 112.849 31.092C112.289 30.5 111.521 30.204 110.545 30.204C109.633 30.204 108.905 30.508 108.361 31.116C107.817 31.724 107.489 32.588 107.377 33.708H113.689V33.54ZM121.714 40.74C120.93 40.74 120.226 40.58 119.602 40.26C118.994 39.94 118.514 39.5 118.162 38.94C117.826 38.364 117.658 37.716 117.658 36.996C117.658 35.78 118.122 34.852 119.05 34.212C119.978 33.556 121.298 33.228 123.01 33.228H125.266V32.628C125.266 31.828 125.05 31.212 124.618 30.78C124.186 30.348 123.554 30.132 122.722 30.132C122.002 30.132 121.33 30.276 120.706 30.564C120.082 30.836 119.57 31.236 119.17 31.764L118.042 30.348C118.618 29.676 119.314 29.164 120.13 28.812C120.962 28.444 121.858 28.26 122.818 28.26C124.354 28.26 125.546 28.636 126.394 29.388C127.242 30.124 127.666 31.172 127.666 32.532V38.1C127.666 38.82 127.762 39.62 127.954 40.5H125.866C125.706 40.116 125.594 39.58 125.53 38.892H125.482C124.57 40.124 123.314 40.74 121.714 40.74ZM122.17 38.892C123.034 38.892 123.762 38.66 124.354 38.196C124.962 37.716 125.266 37.14 125.266 36.468V34.884H122.914C121.97 34.884 121.242 35.068 120.73 35.436C120.234 35.788 119.986 36.308 119.986 36.996C119.986 37.588 120.178 38.052 120.562 38.388C120.962 38.724 121.498 38.892 122.17 38.892ZM135.023 40.74C133.455 40.74 132.223 40.164 131.327 39.012C130.431 37.86 129.983 36.284 129.983 34.284C129.983 33.068 130.191 32.012 130.607 31.116C131.023 30.204 131.615 29.5 132.383 29.004C133.151 28.508 134.047 28.26 135.071 28.26C136.511 28.26 137.663 28.836 138.527 29.988H138.575V22.692H140.951V37.428C140.951 38.964 140.975 39.988 141.023 40.5H138.815C138.783 40.148 138.767 39.548 138.767 38.7H138.719C138.351 39.308 137.831 39.804 137.159 40.188C136.487 40.556 135.775 40.74 135.023 40.74ZM135.407 38.868C136.367 38.868 137.135 38.588 137.711 38.028C138.287 37.452 138.575 36.676 138.575 35.7V33.42C138.575 32.428 138.279 31.62 137.687 30.996C137.111 30.372 136.351 30.06 135.407 30.06C134.447 30.06 133.695 30.436 133.151 31.188C132.623 31.924 132.359 32.972 132.359 34.332C132.359 35.756 132.623 36.868 133.151 37.668C133.695 38.468 134.447 38.868 135.407 38.868ZM145.388 26.652C144.892 26.652 144.5 26.516 144.212 26.244C143.924 25.972 143.78 25.604 143.78 25.14C143.78 24.676 143.924 24.308 144.212 24.036C144.5 23.764 144.892 23.628 145.388 23.628C145.884 23.628 146.276 23.764 146.564 24.036C146.868 24.308 147.02 24.676 147.02 25.14C147.02 25.604 146.868 25.972 146.564 26.244C146.276 26.516 145.884 26.652 145.388 26.652ZM144.212 28.5H146.588V40.5H144.212V28.5ZM149.778 31.572C149.778 30.084 149.746 29.06 149.682 28.5H151.89C151.97 29.092 152.01 29.796 152.01 30.612H152.082C152.402 29.892 152.922 29.324 153.642 28.908C154.378 28.476 155.194 28.26 156.09 28.26C158.906 28.26 160.314 30.084 160.314 33.732V40.5H157.938V33.708C157.938 32.508 157.738 31.62 157.338 31.044C156.938 30.468 156.322 30.18 155.49 30.18C154.514 30.18 153.714 30.532 153.09 31.236C152.466 31.94 152.154 32.836 152.154 33.924V40.5H149.778V31.572ZM173.459 28.5V40.092C173.459 42.044 172.971 43.524 171.995 44.532C171.035 45.54 169.619 46.044 167.747 46.044C166.883 46.044 166.059 45.94 165.275 45.732C164.507 45.54 163.819 45.252 163.211 44.868L164.003 43.188C165.219 43.78 166.435 44.076 167.651 44.076C170.019 44.076 171.203 42.628 171.203 39.732V38.892C170.883 39.452 170.411 39.884 169.787 40.188C169.179 40.492 168.467 40.644 167.651 40.644C166.035 40.644 164.771 40.084 163.859 38.964C162.947 37.844 162.491 36.292 162.491 34.308C162.491 32.42 162.939 30.94 163.835 29.868C164.731 28.796 165.963 28.26 167.531 28.26C168.363 28.26 169.091 28.428 169.715 28.764C170.339 29.084 170.835 29.548 171.203 30.156H171.251L171.491 28.5H173.459ZM171.083 33.732C171.083 32.564 170.811 31.66 170.267 31.02C169.739 30.38 168.995 30.06 168.035 30.06C167.043 30.06 166.267 30.444 165.707 31.212C165.147 31.964 164.867 33.02 164.867 34.38C164.867 35.772 165.139 36.852 165.683 37.62C166.243 38.372 167.027 38.748 168.035 38.748C168.995 38.748 169.739 38.46 170.267 37.884C170.811 37.308 171.083 36.5 171.083 35.46V33.732Z" fill="white"/>
<defs>
<clipPath id="clip0_595_26896">
<rect width="31" height="36.25" fill="white" transform="translate(13 11.25)"/>
</clipPath>
</defs>
</svg>
