<svg width="105" height="60" viewBox="0 0 105 60" fill="none" xmlns="http://www.w3.org/2000/svg">
<g filter="url(#filter0_f_571_14538)">
<path d="M21 47.333C22.6569 47.333 24 45.9899 24 44.333C24 42.6762 22.6569 41.333 21 41.333C19.3431 41.333 18 42.6762 18 44.333C18 45.9899 19.3431 47.333 21 47.333Z" fill="#00FFF6"/>
</g>
<g filter="url(#filter1_f_571_14538)">
<path d="M37.25 47.25C38.9069 47.25 40.25 45.9069 40.25 44.25C40.25 42.5931 38.9069 41.25 37.25 41.25C35.5931 41.25 34.25 42.5931 34.25 44.25C34.25 45.9069 35.5931 47.25 37.25 47.25Z" fill="#00FFF6"/>
</g>
<g filter="url(#filter2_f_571_14538)">
<path d="M14.6071 21.25H42.6429L38.5181 35.6868C38.3688 36.2092 38.0535 36.6687 37.6197 36.9959C37.186 37.323 36.6575 37.5 36.1142 37.5H21.1358C20.5925 37.5 20.064 37.323 19.6303 36.9959C19.1965 36.6687 18.8812 36.2092 18.7319 35.6868L13.0805 15.9066C13.0058 15.6454 12.8482 15.4156 12.6313 15.2521C12.4144 15.0885 12.1502 15 11.8786 15H9.25" stroke="#FF2C52" stroke-width="2" stroke-linecap="round" stroke-linejoin="round"/>
</g>
<path d="M21.166 46.333C22.5467 46.333 23.666 45.2137 23.666 43.833C23.666 42.4523 22.5467 41.333 21.166 41.333C19.7853 41.333 18.666 42.4523 18.666 43.833C18.666 45.2137 19.7853 46.333 21.166 46.333Z" fill="white"/>
<path d="M36.75 46.25C38.1307 46.25 39.25 45.1307 39.25 43.75C39.25 42.3693 38.1307 41.25 36.75 41.25C35.3693 41.25 34.25 42.3693 34.25 43.75C34.25 45.1307 35.3693 46.25 36.75 46.25Z" fill="white"/>
<path d="M14.6071 21.25H42.6429L38.5181 35.6868C38.3688 36.2092 38.0535 36.6687 37.6197 36.9959C37.186 37.323 36.6575 37.5 36.1142 37.5H21.1358C20.5925 37.5 20.064 37.323 19.6303 36.9959C19.1965 36.6687 18.8812 36.2092 18.7319 35.6868L13.0805 15.9066C13.0058 15.6454 12.8482 15.4156 12.6313 15.2521C12.4144 15.0885 12.1502 15 11.8786 15H9.25" stroke="white" stroke-linecap="round" stroke-linejoin="round"/>
<path d="M60.2432 40.74C58.7392 40.74 57.4272 40.388 56.3072 39.684C55.2032 38.98 54.3472 37.98 53.7392 36.684C53.1312 35.388 52.8272 33.86 52.8272 32.1C52.8272 30.34 53.1312 28.812 53.7392 27.516C54.3472 26.22 55.2112 25.22 56.3312 24.516C57.4672 23.812 58.7952 23.46 60.3152 23.46C61.5472 23.46 62.6432 23.7 63.6032 24.18C64.5632 24.66 65.2672 25.332 65.7152 26.196L64.2272 27.588C63.3632 26.26 62.0752 25.596 60.3632 25.596C58.7952 25.596 57.5872 26.164 56.7392 27.3C55.8912 28.42 55.4672 30.02 55.4672 32.1C55.4672 34.164 55.8832 35.764 56.7152 36.9C57.5472 38.036 58.7232 38.604 60.2432 38.604C61.1712 38.604 61.9632 38.444 62.6192 38.124C63.2752 37.788 63.8112 37.284 64.2272 36.612L65.7152 38.004C65.2512 38.868 64.5392 39.54 63.5792 40.02C62.6352 40.5 61.5232 40.74 60.2432 40.74ZM71.2995 40.74C70.5155 40.74 69.8115 40.58 69.1875 40.26C68.5795 39.94 68.0995 39.5 67.7475 38.94C67.4115 38.364 67.2435 37.716 67.2435 36.996C67.2435 35.78 67.7075 34.852 68.6355 34.212C69.5635 33.556 70.8835 33.228 72.5955 33.228H74.8515V32.628C74.8515 31.828 74.6355 31.212 74.2035 30.78C73.7715 30.348 73.1395 30.132 72.3075 30.132C71.5875 30.132 70.9155 30.276 70.2915 30.564C69.6675 30.836 69.1555 31.236 68.7555 31.764L67.6275 30.348C68.2035 29.676 68.8995 29.164 69.7155 28.812C70.5475 28.444 71.4435 28.26 72.4035 28.26C73.9395 28.26 75.1315 28.636 75.9795 29.388C76.8275 30.124 77.2515 31.172 77.2515 32.532V38.1C77.2515 38.82 77.3475 39.62 77.5395 40.5H75.4515C75.2915 40.116 75.1795 39.58 75.1155 38.892H75.0675C74.1555 40.124 72.8995 40.74 71.2995 40.74ZM71.7555 38.892C72.6195 38.892 73.3475 38.66 73.9395 38.196C74.5475 37.716 74.8515 37.14 74.8515 36.468V34.884H72.4995C71.5555 34.884 70.8275 35.068 70.3155 35.436C69.8195 35.788 69.5715 36.308 69.5715 36.996C69.5715 37.588 69.7635 38.052 70.1475 38.388C70.5475 38.724 71.0835 38.892 71.7555 38.892ZM80.3128 31.428C80.3128 30.068 80.2888 29.092 80.2408 28.5H82.4728C82.5368 29.14 82.5688 29.844 82.5688 30.612V30.852H82.6408C82.9608 30.036 83.4648 29.404 84.1528 28.956C84.8568 28.492 85.6808 28.26 86.6248 28.26C86.8808 28.26 87.1128 28.284 87.3208 28.332V30.252C87.2088 30.22 86.9608 30.204 86.5768 30.204C85.8728 30.204 85.2168 30.412 84.6088 30.828C84.0168 31.228 83.5448 31.78 83.1928 32.484C82.8568 33.172 82.6888 33.932 82.6888 34.764V40.5H80.3128V31.428ZM93.5898 40.74C92.4698 40.74 91.5898 40.404 90.9498 39.732C90.3258 39.044 90.0138 38.1 90.0138 36.9V30.324H87.8538V28.5H90.0138V25.332L92.2938 24.66H92.3898V28.5H95.8218V30.324H92.3898V36.612C92.3898 37.396 92.5418 37.972 92.8458 38.34C93.1658 38.708 93.6458 38.892 94.2858 38.892C94.9258 38.892 95.4938 38.796 95.9898 38.604L96.1338 40.308C95.5418 40.596 94.6938 40.74 93.5898 40.74Z" fill="#00FFF6"/>
<defs>
<filter id="filter0_f_571_14538" x="14" y="37.333" width="14" height="14" filterUnits="userSpaceOnUse" color-interpolation-filters="sRGB">
<feFlood flood-opacity="0" result="BackgroundImageFix"/>
<feBlend mode="normal" in="SourceGraphic" in2="BackgroundImageFix" result="shape"/>
<feGaussianBlur stdDeviation="2" result="effect1_foregroundBlur_571_14538"/>
</filter>
<filter id="filter1_f_571_14538" x="30.25" y="37.25" width="14" height="14" filterUnits="userSpaceOnUse" color-interpolation-filters="sRGB">
<feFlood flood-opacity="0" result="BackgroundImageFix"/>
<feBlend mode="normal" in="SourceGraphic" in2="BackgroundImageFix" result="shape"/>
<feGaussianBlur stdDeviation="2" result="effect1_foregroundBlur_571_14538"/>
</filter>
<filter id="filter2_f_571_14538" x="4.25" y="10" width="43.3931" height="32.5" filterUnits="userSpaceOnUse" color-interpolation-filters="sRGB">
<feFlood flood-opacity="0" result="BackgroundImageFix"/>
<feBlend mode="normal" in="SourceGraphic" in2="BackgroundImageFix" result="shape"/>
<feGaussianBlur stdDeviation="2" result="effect1_foregroundBlur_571_14538"/>
</filter>
</defs>
</svg>
