<svg width="56" height="56" viewBox="0 0 56 56" fill="none" xmlns="http://www.w3.org/2000/svg">
<g clip-path="url(#clip0_282_6244)">
<path fill-rule="evenodd" clip-rule="evenodd" d="M55.5 27.916C55.5 12.7282 43.1878 0.416016 28 0.416016C12.8122 0.416016 0.5 12.7282 0.5 27.916C0.5 43.1038 12.8122 55.416 28 55.416C43.1878 55.416 55.5 43.1038 55.5 27.916ZM52.2 27.916C52.2 14.5507 41.3653 3.71602 28 3.71602C14.6347 3.71602 3.8 14.5507 3.8 27.916C3.8 41.2813 14.6347 52.116 28 52.116C41.3653 52.116 52.2 41.2813 52.2 27.916ZM38.2911 21.8919C36.704 19.5281 34.2318 19.2043 33.3508 19.1669C31.2468 18.95 29.2454 20.4277 28.1776 20.4277C27.1125 20.4277 25.4647 19.1989 23.7198 19.2312C21.4266 19.2659 19.312 20.5884 18.1312 22.6789C15.7485 26.8871 17.521 33.1214 19.8433 36.5344C20.9781 38.2048 22.3312 40.0813 24.1078 40.0143C25.8186 39.9448 26.4656 38.8875 28.534 38.8875C30.6025 38.8875 31.1838 40.0143 32.9944 39.9797C34.8354 39.9449 36.0018 38.2771 37.1287 36.6014C38.4318 34.6633 38.9684 32.7869 39 32.6905C38.9591 32.6716 35.41 31.2877 35.3745 27.1279C35.3403 23.6452 38.1649 21.9749 38.2911 21.8919ZM33.3783 12.516C32.0201 12.5723 30.3737 13.4369 29.3992 14.5987C28.5248 15.6293 27.7595 17.2741 27.9645 18.8535C29.4808 18.974 31.0286 18.0692 31.9726 16.9075C32.9155 15.7431 33.5519 14.1276 33.3783 12.516Z" fill="white"/>
</g>
<defs>
<clipPath id="clip0_282_6244">
<rect width="55" height="55" fill="white" transform="translate(0.5 0.416016)"/>
</clipPath>
</defs>
</svg>
