<svg width="56" height="56" viewBox="0 0 56 56" fill="none" xmlns="http://www.w3.org/2000/svg">
<g clip-path="url(#clip0_282_6236)">
<path d="M28 55.416C43.1878 55.416 55.5 43.1038 55.5 27.916C55.5 12.7282 43.1878 0.416016 28 0.416016C12.8122 0.416016 0.5 12.7282 0.5 27.916C0.5 43.1038 12.8122 55.416 28 55.416Z" fill="#3C5A9A"/>
<path d="M36.9416 8.85742H30.8497C27.2346 8.85742 23.2135 10.3779 23.2135 15.6182C23.2311 17.4441 23.2135 19.1928 23.2135 21.1609H19.0312V27.8161H23.3429V46.9752H31.2658V27.6896H36.4952L36.9683 21.1422H31.1293C31.1293 21.1422 31.1424 18.2296 31.1293 17.3838C31.1293 15.313 33.2841 15.4316 33.4137 15.4316C34.4391 15.4316 36.4328 15.4345 36.9446 15.4316V8.85742H36.9416Z" fill="white"/>
</g>
<defs>
<clipPath id="clip0_282_6236">
<rect width="55" height="55" fill="white" transform="translate(0.5 0.416016)"/>
</clipPath>
</defs>
</svg>
