<svg width="56" height="56" viewBox="0 0 56 56" fill="none" xmlns="http://www.w3.org/2000/svg">
<g clip-path="url(#clip0_282_6239)">
<path d="M54.2146 28.431C54.2146 26.1777 54.0317 24.5333 53.636 22.8281H27.9053V32.9985H43.0086C42.7043 35.526 41.0599 39.3323 37.4058 41.89L37.3546 42.2305L45.4902 48.5331L46.0538 48.5893C51.2303 43.8085 54.2146 36.7744 54.2146 28.431Z" fill="#4285F4"/>
<path d="M27.9052 55.2275C35.3046 55.2275 41.5164 52.7913 46.0537 48.5893L37.4057 41.89C35.0915 43.5039 31.9855 44.6305 27.9052 44.6305C20.658 44.6305 14.507 39.85 12.3144 33.2422L11.993 33.2695L3.53348 39.8164L3.42285 40.1239C7.92949 49.0763 17.1865 55.2275 27.9052 55.2275Z" fill="#34A853"/>
<path d="M12.3147 33.2424C11.7362 31.5372 11.4013 29.71 11.4013 27.8222C11.4013 25.9341 11.7362 24.1072 12.2843 22.4019L12.269 22.0388L3.70344 15.3867L3.42319 15.52C1.56578 19.235 0.5 23.4069 0.5 27.8222C0.5 32.2375 1.56578 36.4091 3.42319 40.1241L12.3147 33.2424Z" fill="#FBBC05"/>
<path d="M27.9052 11.0128C33.0513 11.0128 36.5226 13.2356 38.5019 15.0933L46.2364 7.54146C41.4862 3.12613 35.3046 0.416016 27.9052 0.416016C17.1865 0.416016 7.92949 6.56699 3.42285 15.5194L12.2839 22.4013C14.507 15.7936 20.658 11.0128 27.9052 11.0128Z" fill="#EB4335"/>
</g>
<defs>
<clipPath id="clip0_282_6239">
<rect width="55" height="55" fill="white" transform="translate(0.5 0.416016)"/>
</clipPath>
</defs>
</svg>
