<svg width="40" height="40" viewBox="0 0 40 40" fill="none" xmlns="http://www.w3.org/2000/svg">
<g filter="url(#filter0_f_595_24786)">
<path d="M35 20C35 28.2843 28.2843 35 20 35C11.7157 35 5 28.2843 5 20C5 11.7157 11.7157 5 20 5C28.2843 5 35 11.7157 35 20Z" stroke="#FF2C52" stroke-width="2" stroke-linecap="round" stroke-linejoin="round"/>
</g>
<g filter="url(#filter1_f_595_24786)">
<path d="M20.0002 26.3333C24.2343 26.3333 27.6668 22.9008 27.6668 18.6667C27.6668 14.4325 24.2343 11 20.0002 11C15.766 11 12.3335 14.4325 12.3335 18.6667C12.3335 22.9008 15.766 26.3333 20.0002 26.3333Z" stroke="#FF2C52" stroke-width="2" stroke-linecap="round" stroke-linejoin="round"/>
</g>
<g filter="url(#filter2_f_595_24786)">
<mask id="path-3-inside-1_595_24786" fill="white">
<path d="M9.29932 31.8958C10.3037 29.9212 11.8349 28.263 13.7234 27.1048C15.6119 25.9465 17.7841 25.3335 19.9994 25.3335C22.2148 25.3335 24.387 25.9465 26.2755 27.1047C28.1641 28.2629 29.6952 29.9212 30.6996 31.8958"/>
</mask>
<path d="M7.51665 30.9891C7.01589 31.9737 7.40808 33.1777 8.39261 33.6785C9.37715 34.1793 10.5812 33.7871 11.082 32.8025L7.51665 30.9891ZM28.9169 32.8025C29.4177 33.787 30.6218 34.1792 31.6063 33.6785C32.5909 33.1777 32.983 31.9736 32.4823 30.9891L28.9169 32.8025ZM11.082 32.8025C11.919 31.1569 13.1951 29.7749 14.769 28.8097L12.6778 25.3999C10.4746 26.751 8.68833 28.6855 7.51665 30.9891L11.082 32.8025ZM14.769 28.8097C16.3429 27.8444 18.1532 27.3335 19.9995 27.3335L19.9994 23.3335C17.415 23.3335 14.8809 24.0487 12.6778 25.3999L14.769 28.8097ZM19.9995 27.3335C21.8458 27.3335 23.6561 27.8444 25.2299 28.8096L27.3211 25.3998C25.118 24.0487 22.5839 23.3335 19.9994 23.3335L19.9995 27.3335ZM25.2299 28.8096C26.8038 29.7749 28.0799 31.1568 28.9169 32.8025L32.4823 30.9891C31.3106 28.6855 29.5243 26.751 27.3211 25.3998L25.2299 28.8096Z" fill="#FF2C52" mask="url(#path-3-inside-1_595_24786)"/>
</g>
<path d="M35.5 20C35.5 28.5604 28.5604 35.5 20 35.5C11.4396 35.5 4.5 28.5604 4.5 20C4.5 11.4396 11.4396 4.5 20 4.5C28.5604 4.5 35.5 11.4396 35.5 20Z" stroke="white" stroke-linecap="round" stroke-linejoin="round"/>
<path d="M20.0002 25.8333C23.9582 25.8333 27.1668 22.6247 27.1668 18.6667C27.1668 14.7086 23.9582 11.5 20.0002 11.5C16.0421 11.5 12.8335 14.7086 12.8335 18.6667C12.8335 22.6247 16.0421 25.8333 20.0002 25.8333Z" stroke="white" stroke-linecap="round" stroke-linejoin="round"/>
<mask id="path-7-inside-2_595_24786" fill="white">
<path d="M9.29932 31.8958C10.3037 29.9212 11.8349 28.263 13.7234 27.1048C15.6119 25.9465 17.7841 25.3335 19.9994 25.3335C22.2148 25.3335 24.387 25.9465 26.2755 27.1047C28.1641 28.2629 29.6952 29.9212 30.6996 31.8958"/>
</mask>
<path d="M8.40798 31.4425C8.15761 31.9348 8.3537 32.5368 8.84596 32.7872C9.33823 33.0375 9.94027 32.8415 10.1906 32.3492L8.40798 31.4425ZM29.8083 32.3492C30.0587 32.8414 30.6607 33.0375 31.153 32.7871C31.6452 32.5367 31.8413 31.9347 31.5909 31.4424L29.8083 32.3492ZM10.1906 32.3492C11.1113 30.539 12.515 29.0189 14.2462 27.9572L13.2006 26.2523C11.1547 27.507 9.496 29.3033 8.40798 31.4425L10.1906 32.3492ZM14.2462 27.9572C15.9774 26.8955 17.9686 26.3335 19.9995 26.3335L19.9994 24.3335C17.5995 24.3335 15.2464 24.9976 13.2006 26.2523L14.2462 27.9572ZM19.9995 26.3335C22.0303 26.3335 24.0215 26.8955 25.7527 27.9572L26.7983 26.2523C24.7525 24.9976 22.3994 24.3335 19.9994 24.3335L19.9995 26.3335ZM25.7527 27.9572C27.4839 29.0189 28.8876 30.539 29.8083 32.3492L31.5909 31.4424C30.5029 29.3033 28.8442 27.507 26.7983 26.2523L25.7527 27.9572Z" fill="white" mask="url(#path-7-inside-2_595_24786)"/>
<defs>
<filter id="filter0_f_595_24786" x="0" y="0" width="40" height="40" filterUnits="userSpaceOnUse" color-interpolation-filters="sRGB">
<feFlood flood-opacity="0" result="BackgroundImageFix"/>
<feBlend mode="normal" in="SourceGraphic" in2="BackgroundImageFix" result="shape"/>
<feGaussianBlur stdDeviation="2" result="effect1_foregroundBlur_595_24786"/>
</filter>
<filter id="filter1_f_595_24786" x="7.3335" y="6" width="25.3335" height="25.3335" filterUnits="userSpaceOnUse" color-interpolation-filters="sRGB">
<feFlood flood-opacity="0" result="BackgroundImageFix"/>
<feBlend mode="normal" in="SourceGraphic" in2="BackgroundImageFix" result="shape"/>
<feGaussianBlur stdDeviation="2" result="effect1_foregroundBlur_595_24786"/>
</filter>
<filter id="filter2_f_595_24786" x="5.29932" y="21.3335" width="29.4004" height="14.5625" filterUnits="userSpaceOnUse" color-interpolation-filters="sRGB">
<feFlood flood-opacity="0" result="BackgroundImageFix"/>
<feBlend mode="normal" in="SourceGraphic" in2="BackgroundImageFix" result="shape"/>
<feGaussianBlur stdDeviation="2" result="effect1_foregroundBlur_595_24786"/>
</filter>
</defs>
</svg>
