<svg width="24" height="24" viewBox="0 0 24 24" fill="none" xmlns="http://www.w3.org/2000/svg">
<path d="M11.4698 6.69705L13.326 4.84089C13.7089 4.45756 14.1637 4.15343 14.6642 3.9459C15.1648 3.73836 15.7013 3.63147 16.2432 3.63135C16.785 3.63122 17.3216 3.73786 17.8223 3.94516C18.3229 4.15247 18.7778 4.45638 19.161 4.83953C19.5441 5.22269 19.848 5.67758 20.0553 6.17822C20.2626 6.67886 20.3693 7.21544 20.3691 7.75731C20.369 8.29917 20.2621 8.8357 20.0546 9.33625C19.8471 9.83679 19.5429 10.2915 19.1596 10.6745L16.5079 13.3262C16.1249 13.7092 15.6702 14.0131 15.1697 14.2204C14.6692 14.4277 14.1328 14.5344 13.5911 14.5344C13.0494 14.5344 12.513 14.4277 12.0126 14.2204C11.5121 14.0131 11.0574 13.7092 10.6743 13.3262" stroke="white" stroke-width="2" stroke-linecap="round" stroke-linejoin="round"/>
<path d="M12.5302 17.3036L10.674 19.1598C10.2911 19.5431 9.8363 19.8472 9.33576 20.0548C8.83521 20.2623 8.29868 20.3692 7.75682 20.3693C7.21496 20.3694 6.67838 20.2628 6.17773 20.0555C5.67709 19.8482 5.2222 19.5443 4.83904 19.1611C4.45589 18.778 4.15198 18.3231 3.94467 17.8224C3.73737 17.3218 3.63073 16.7852 3.63086 16.2434C3.63099 15.7015 3.73787 15.165 3.94541 14.6644C4.15295 14.1639 4.45707 13.7091 4.8404 13.3261L7.49205 10.6745C7.87509 10.2915 8.32983 9.98761 8.8303 9.78031C9.33077 9.57301 9.86717 9.46631 10.4089 9.46631C10.9506 9.46631 11.487 9.57301 11.9874 9.78031C12.4879 9.98761 12.9426 10.2915 13.3257 10.6745" stroke="white" stroke-width="2" stroke-linecap="round" stroke-linejoin="round"/>
</svg>
