<svg width="25" height="24" viewBox="0 0 25 24" fill="none" xmlns="http://www.w3.org/2000/svg">
<path d="M7.5 13.5005C9.57107 13.5005 11.25 11.8216 11.25 9.75049C11.25 7.67942 9.57107 6.00049 7.5 6.00049C5.42893 6.00049 3.75 7.67942 3.75 9.75049C3.75 11.8216 5.42893 13.5005 7.5 13.5005Z" stroke="white" stroke-width="2" stroke-linecap="round" stroke-linejoin="round"/>
<path d="M14.25 7.50049H23.25" stroke="white" stroke-width="2" stroke-linecap="round" stroke-linejoin="round"/>
<path d="M14.25 12.0005H23.25" stroke="white" stroke-width="2" stroke-linecap="round" stroke-linejoin="round"/>
<path d="M16.5 16.5005H23.25" stroke="white" stroke-width="2" stroke-linecap="round" stroke-linejoin="round"/>
<path d="M1.68896 18.0005C2.02187 16.7125 2.77328 15.5716 3.82511 14.757C4.87695 13.9425 6.16959 13.5005 7.49994 13.5005C8.83029 13.5005 10.1229 13.9425 11.1748 14.757C12.2266 15.5716 12.978 16.7125 13.3109 18.0005" stroke="white" stroke-width="2" stroke-linecap="round" stroke-linejoin="round"/>
</svg>
