<svg width="24" height="24" viewBox="0 0 24 24" fill="none" xmlns="http://www.w3.org/2000/svg">
<path d="M12 21.0005L11.8999 20.8504C11.2053 19.8084 10.858 19.2875 10.3991 18.9103C9.99286 18.5764 9.52477 18.3259 9.02161 18.1731C8.45325 18.0005 7.82711 18.0005 6.57482 18.0005H5.2C4.0799 18.0005 3.51984 18.0005 3.09202 17.7825C2.71569 17.5908 2.40973 17.2848 2.21799 16.9085C2 16.4806 2 15.9206 2 14.8005V6.20049C2 5.08038 2 4.52033 2.21799 4.09251C2.40973 3.71618 2.71569 3.41022 3.09202 3.21848C3.51984 3.00049 4.0799 3.00049 5.2 3.00049H5.6C7.84021 3.00049 8.96032 3.00049 9.81596 3.43646C10.5686 3.81996 11.1805 4.43188 11.564 5.18453C12 6.04017 12 7.16028 12 9.40049M12 21.0005V9.40049M12 21.0005L12.1001 20.8504C12.7947 19.8084 13.142 19.2875 13.6009 18.9103C14.0071 18.5764 14.4752 18.3259 14.9784 18.1731C15.5468 18.0005 16.1729 18.0005 17.4252 18.0005H18.8C19.9201 18.0005 20.4802 18.0005 20.908 17.7825C21.2843 17.5908 21.5903 17.2848 21.782 16.9085C22 16.4806 22 15.9206 22 14.8005V6.20049C22 5.08038 22 4.52033 21.782 4.09251C21.5903 3.71618 21.2843 3.41022 20.908 3.21848C20.4802 3.00049 19.9201 3.00049 18.8 3.00049H18.4C16.1598 3.00049 15.0397 3.00049 14.184 3.43646C13.4314 3.81996 12.8195 4.43188 12.436 5.18453C12 6.04017 12 7.16028 12 9.40049" stroke="white" stroke-width="2" stroke-linecap="round" stroke-linejoin="round"/>
</svg>
