<svg width="24" height="24" viewBox="0 0 24 24" fill="none" xmlns="http://www.w3.org/2000/svg">
<path d="M12 15.0005C13.6569 15.0005 15 13.6573 15 12.0005C15 10.3436 13.6569 9.00049 12 9.00049C10.3431 9.00049 9 10.3436 9 12.0005C9 13.6573 10.3431 15.0005 12 15.0005Z" stroke="white" stroke-width="2" stroke-linecap="round" stroke-linejoin="round"/>
<path d="M18.7273 14.7278C18.6063 15.002 18.5702 15.3061 18.6236 15.601C18.6771 15.8959 18.8177 16.1681 19.0273 16.3823L19.0818 16.4369C19.2509 16.6057 19.385 16.8062 19.4765 17.027C19.568 17.2477 19.6151 17.4843 19.6151 17.7232C19.6151 17.9622 19.568 18.1987 19.4765 18.4195C19.385 18.6402 19.2509 18.8407 19.0818 19.0096C18.913 19.1786 18.7124 19.3127 18.4917 19.4042C18.271 19.4957 18.0344 19.5428 17.7955 19.5428C17.5565 19.5428 17.3199 19.4957 17.0992 19.4042C16.8785 19.3127 16.678 19.1786 16.5091 19.0096L16.4545 18.955C16.2403 18.7455 15.9682 18.6049 15.6733 18.5514C15.3784 18.4979 15.0742 18.534 14.8 18.655C14.5311 18.7703 14.3018 18.9616 14.1403 19.2055C13.9788 19.4494 13.8921 19.7352 13.8909 20.0278V20.1823C13.8909 20.6645 13.6994 21.127 13.3584 21.468C13.0174 21.8089 12.5549 22.0005 12.0727 22.0005C11.5905 22.0005 11.1281 21.8089 10.7871 21.468C10.4461 21.127 10.2545 20.6645 10.2545 20.1823V20.1005C10.2475 19.7996 10.1501 19.5078 9.97501 19.2629C9.79991 19.0181 9.55521 18.8317 9.27273 18.7278C8.99853 18.6067 8.69437 18.5707 8.39947 18.6241C8.10456 18.6776 7.83244 18.8182 7.61818 19.0278L7.56364 19.0823C7.39478 19.2514 7.19425 19.3855 6.97353 19.477C6.7528 19.5685 6.51621 19.6156 6.27727 19.6156C6.03834 19.6156 5.80174 19.5685 5.58102 19.477C5.36029 19.3855 5.15977 19.2514 4.99091 19.0823C4.82186 18.9134 4.68775 18.7129 4.59626 18.4922C4.50476 18.2715 4.45766 18.0349 4.45766 17.7959C4.45766 17.557 4.50476 17.3204 4.59626 17.0997C4.68775 16.879 4.82186 16.6784 4.99091 16.5096L5.04545 16.455C5.25503 16.2408 5.39562 15.9687 5.4491 15.6738C5.50257 15.3788 5.46647 15.0747 5.34545 14.8005C5.23022 14.5316 5.03887 14.3023 4.79497 14.1408C4.55107 13.9792 4.26526 13.8926 3.97273 13.8914H3.81818C3.33597 13.8914 2.87351 13.6998 2.53253 13.3589C2.19156 13.0179 2 12.5554 2 12.0732C2 11.591 2.19156 11.1285 2.53253 10.7876C2.87351 10.4466 3.33597 10.255 3.81818 10.255H3.9C4.2009 10.248 4.49273 10.1506 4.73755 9.9755C4.98236 9.8004 5.16883 9.5557 5.27273 9.27322C5.39374 8.99902 5.42984 8.69486 5.37637 8.39995C5.3229 8.10505 5.18231 7.83292 4.97273 7.61867L4.91818 7.56413C4.74913 7.39527 4.61503 7.19474 4.52353 6.97402C4.43203 6.75329 4.38493 6.5167 4.38493 6.27776C4.38493 6.03882 4.43203 5.80223 4.52353 5.58151C4.61503 5.36078 4.74913 5.16026 4.91818 4.9914C5.08704 4.82235 5.28757 4.68824 5.50829 4.59674C5.72901 4.50524 5.96561 4.45815 6.20455 4.45815C6.44348 4.45815 6.68008 4.50524 6.9008 4.59674C7.12153 4.68824 7.32205 4.82235 7.49091 4.9914L7.54546 5.04594C7.75971 5.25552 8.03183 5.39611 8.32674 5.44958C8.62164 5.50306 8.9258 5.46696 9.2 5.34594H9.27273C9.54161 5.2307 9.77093 5.03936 9.93245 4.79546C10.094 4.55156 10.1807 4.26575 10.1818 3.97322V3.81867C10.1818 3.33646 10.3734 2.874 10.7144 2.53302C11.0553 2.19205 11.5178 2.00049 12 2.00049C12.4822 2.00049 12.9447 2.19205 13.2856 2.53302C13.6266 2.874 13.8182 3.33646 13.8182 3.81867V3.90049C13.8194 4.19302 13.906 4.47883 14.0676 4.72273C14.2291 4.96663 14.4584 5.15798 14.7273 5.27322C15.0015 5.39423 15.3056 5.43033 15.6005 5.37686C15.8954 5.32338 16.1676 5.18279 16.3818 4.97322L16.4364 4.91867C16.6052 4.74962 16.8058 4.61552 17.0265 4.52402C17.2472 4.43252 17.4838 4.38542 17.7227 4.38542C17.9617 4.38542 18.1983 4.43252 18.419 4.52402C18.6397 4.61552 18.8402 4.74962 19.0091 4.91867C19.1781 5.08753 19.3122 5.28806 19.4037 5.50878C19.4952 5.7295 19.5423 5.9661 19.5423 6.20503C19.5423 6.44397 19.4952 6.68057 19.4037 6.90129C19.3122 7.12201 19.1781 7.32254 19.0091 7.4914L18.9545 7.54594C18.745 7.7602 18.6044 8.03232 18.5509 8.32723C18.4974 8.62213 18.5335 8.92629 18.6545 9.20049V9.27322C18.7698 9.5421 18.9611 9.77141 19.205 9.93294C19.4489 10.0945 19.7347 10.1811 20.0273 10.1823H20.1818C20.664 10.1823 21.1265 10.3739 21.4675 10.7148C21.8084 11.0558 22 11.5183 22 12.0005C22 12.4827 21.8084 12.9452 21.4675 13.2861C21.1265 13.6271 20.664 13.8187 20.1818 13.8187H20.1C19.8075 13.8198 19.5217 13.9065 19.2778 14.068C19.0339 14.2296 18.8425 14.4589 18.7273 14.7278Z" stroke="white" stroke-width="2" stroke-linecap="round" stroke-linejoin="round"/>
</svg>
