<svg width="24" height="24" viewBox="0 0 24 24" fill="none" xmlns="http://www.w3.org/2000/svg">
<path d="M12 16.8755C14.0711 16.8755 15.75 15.1966 15.75 13.1255C15.75 11.0544 14.0711 9.37549 12 9.37549C9.92893 9.37549 8.25 11.0544 8.25 13.1255C8.25 15.1966 9.92893 16.8755 12 16.8755Z" stroke="white" stroke-width="2" stroke-linecap="round" stroke-linejoin="round"/>
<path d="M18.375 10.8755C19.2484 10.8748 20.1098 11.0777 20.891 11.4682C21.6722 11.8587 22.3516 12.426 22.8751 13.1251" stroke="white" stroke-width="2" stroke-linecap="round" stroke-linejoin="round"/>
<path d="M1.12451 13.1253C1.64805 12.4262 2.32742 11.8588 3.10863 11.4683C3.88985 11.0777 4.75138 10.8748 5.62478 10.8755" stroke="white" stroke-width="2" stroke-linecap="round" stroke-linejoin="round"/>
<path d="M6.60303 20.2504C7.0957 19.2385 7.86296 18.3854 8.81722 17.7887C9.77148 17.1919 10.8743 16.8755 11.9998 16.8755C13.1253 16.8755 14.2281 17.1919 15.1824 17.7887C16.1366 18.3854 16.9039 19.2384 17.3966 20.2504" stroke="white" stroke-width="2" stroke-linecap="round" stroke-linejoin="round"/>
<path d="M5.62493 10.8755C5.05572 10.8754 4.49828 10.7133 4.01771 10.4083C3.53714 10.1032 3.15328 9.66774 2.91095 9.15269C2.66861 8.63764 2.57781 8.06427 2.64914 7.49955C2.72047 6.93482 2.95099 6.40204 3.31378 5.96342C3.67658 5.5248 4.15667 5.19844 4.69799 5.02246C5.23932 4.84648 5.81954 4.82814 6.37091 4.96957C6.92227 5.11101 7.42202 5.40638 7.81179 5.82121C8.20157 6.23603 8.46529 6.75319 8.57215 7.31228" stroke="white" stroke-width="2" stroke-linecap="round" stroke-linejoin="round"/>
<path d="M15.4277 7.31235C15.5345 6.75317 15.7982 6.23592 16.188 5.821C16.5778 5.40608 17.0776 5.11063 17.629 4.96914C18.1805 4.82765 18.7608 4.84597 19.3022 5.02195C19.8436 5.19794 20.3237 5.52433 20.6866 5.963C21.0494 6.40168 21.28 6.93453 21.3513 7.49933C21.4226 8.06414 21.3318 8.63758 21.0894 9.15269C20.847 9.6678 20.4631 10.1033 19.9824 10.4084C19.5018 10.7134 18.9443 10.8755 18.375 10.8755" stroke="white" stroke-width="2" stroke-linecap="round" stroke-linejoin="round"/>
</svg>
