<svg width="24" height="24" viewBox="0 0 24 24" fill="none" xmlns="http://www.w3.org/2000/svg">
<path d="M11.9995 15.0005C13.035 15.0005 13.8745 14.161 13.8745 13.1255C13.8745 12.09 13.035 11.2505 11.9995 11.2505C10.964 11.2505 10.1245 12.09 10.1245 13.1255C10.1245 14.161 10.964 15.0005 11.9995 15.0005Z" stroke="white" stroke-width="2" stroke-linecap="round" stroke-linejoin="round"/>
<path d="M11.9995 15.0005V17.2505" stroke="white" stroke-width="2" stroke-linecap="round" stroke-linejoin="round"/>
<path d="M19.4995 8.25049H4.49951C4.0853 8.25049 3.74951 8.58627 3.74951 9.00049V19.5005C3.74951 19.9147 4.0853 20.2505 4.49951 20.2505H19.4995C19.9137 20.2505 20.2495 19.9147 20.2495 19.5005V9.00049C20.2495 8.58627 19.9137 8.25049 19.4995 8.25049Z" stroke="white" stroke-width="2" stroke-linecap="round" stroke-linejoin="round"/>
<path d="M8.62451 8.25049V4.87549C8.62451 3.98038 8.98009 3.12194 9.61303 2.489C10.246 1.85607 11.1044 1.50049 11.9995 1.50049C12.8946 1.50049 13.7531 1.85607 14.386 2.489C15.0189 3.12194 15.3745 3.98038 15.3745 4.87549V8.25049" stroke="white" stroke-width="2" stroke-linecap="round" stroke-linejoin="round"/>
</svg>
