<svg width="60" height="60" viewBox="0 0 60 60" fill="none" xmlns="http://www.w3.org/2000/svg">
<g clip-path="url(#clip0_334_15627)">
<g filter="url(#filter0_f_334_15627)">
<path d="M51.535 24.6425C51.535 36.3882 42.0132 45.91 30.2675 45.91C18.5218 45.91 9 36.3882 9 24.6425C9 12.8968 18.5218 3.375 30.2675 3.375C42.0132 3.375 51.535 12.8968 51.535 24.6425Z" stroke="#FF2C52" stroke-width="3"/>
<path d="M22.8881 16.469C22.6781 16.7689 22.481 17.0776 22.2974 17.3862C22.1007 17.0423 21.8874 16.6983 21.6582 16.3652C21.2844 15.822 20.8344 15.2574 20.3068 14.7671C20.8072 14.297 21.2368 13.7615 21.5961 13.2484C21.806 12.9486 22.0032 12.6398 22.1868 12.3312C22.3835 12.6751 22.5968 13.0192 22.826 13.3522C23.1998 13.8954 23.6497 14.46 24.1774 14.9503C23.677 15.4205 23.2474 15.9559 22.8881 16.469Z" fill="white" stroke="#00FFF6" stroke-width="3"/>
<path d="M17.447 29.95C17.6321 30.2177 17.8474 30.4991 18.0938 30.7691C17.8625 31.0245 17.6608 31.2884 17.4876 31.5369C17.487 31.5377 17.4865 31.5385 17.4859 31.5393C17.4679 31.5127 17.4498 31.4862 17.4315 31.4598C17.2464 31.1921 17.0311 30.9107 16.7847 30.6407C17.0159 30.3853 17.2177 30.1214 17.3909 29.8729C17.3915 29.8721 17.392 29.8713 17.3926 29.8705C17.4106 29.8971 17.4287 29.9236 17.447 29.95Z" fill="white" stroke="#00FFF6" stroke-width="3"/>
<path d="M37.4541 22.7059C37.6392 22.9736 37.8545 23.255 38.1009 23.5249C37.8696 23.7804 37.6679 24.0443 37.4947 24.2928C37.4941 24.2936 37.4935 24.2944 37.493 24.2952C37.475 24.2686 37.4568 24.2421 37.4386 24.2156C37.2535 23.9479 37.0382 23.6665 36.7918 23.3966C37.023 23.1411 37.2247 22.8772 37.398 22.6287C37.3985 22.6279 37.3991 22.6271 37.3997 22.6263C37.4176 22.6529 37.4358 22.6794 37.4541 22.7059Z" fill="white" stroke="#00FFF6" stroke-width="3"/>
<path d="M17.9075 49.4028V47.06C21.5253 49.2053 25.7453 50.4332 30.253 50.4332C34.7607 50.4332 38.9807 49.2053 42.5985 47.06V49.4028C42.5985 49.8324 42.4622 50.2068 42.2408 50.4947L40.3834 52.9092H43.4297H46.7879C47.8359 52.9092 48.6746 53.7583 48.6746 54.7674C48.6746 55.2661 48.4689 55.735 48.1258 56.0893C47.7878 56.4242 47.3291 56.6256 46.8164 56.6256H13.7181C12.6966 56.6256 11.8599 55.7889 11.8599 54.7674C11.8599 54.2516 12.0637 53.7904 12.4024 53.4517C12.741 53.1131 13.2022 52.9092 13.7181 52.9092H17.0763H20.0609L18.28 50.5142C18.047 50.2009 17.9075 49.814 17.9075 49.4028Z" stroke="#FF2C52" stroke-width="3"/>
</g>
</g>
<path d="M52.035 24.6425C52.035 36.6644 42.2894 46.41 30.2675 46.41C18.2456 46.41 8.5 36.6644 8.5 24.6425C8.5 12.6207 18.2457 2.875 30.2675 2.875C42.2894 2.875 52.035 12.6206 52.035 24.6425Z" stroke="white" stroke-width="2"/>
<path d="M26.2691 15.2927C24.6611 16.0469 23.352 18.3948 22.6263 20.017C22.484 20.33 22.0429 20.3158 21.9148 20.0028C21.2033 18.3094 19.88 15.8904 18.2151 15.122C17.9163 14.9797 17.9163 14.567 18.2151 14.4247C19.823 13.6705 21.1322 11.3226 21.8579 9.70045C22.0002 9.3874 22.4413 9.40163 22.5694 9.71468C23.2809 11.408 24.6042 13.8271 26.2691 14.5955C26.5537 14.7378 26.5537 15.1504 26.2691 15.2927Z" fill="white"/>
<path d="M20.1927 31.0037C19.0828 31.516 18.2005 33.1239 17.7025 34.2339C17.6029 34.4473 17.3041 34.4473 17.2187 34.2196C16.7349 33.0528 15.8242 31.4164 14.6858 30.8756C14.4866 30.776 14.4866 30.4914 14.6858 30.4061C15.7957 29.8938 16.6779 28.2858 17.176 27.1759C17.2756 26.9625 17.5744 26.9625 17.6598 27.1902C18.1436 28.357 19.0543 29.9934 20.1927 30.5341C20.3919 30.6195 20.4061 30.9041 20.1927 31.0037Z" fill="white"/>
<path d="M40.1998 23.7596C39.0898 24.2718 38.2076 25.8798 37.7096 26.9897C37.61 27.2032 37.3111 27.2032 37.2258 26.9755C36.7419 25.8087 35.8312 24.1722 34.6929 23.6315C34.4937 23.5319 34.4937 23.2473 34.6929 23.1619C35.8028 22.6497 36.685 21.0417 37.1831 19.9318C37.2827 19.7183 37.5815 19.7183 37.6669 19.946C38.1507 21.1129 39.0614 22.7493 40.1998 23.29C40.399 23.3754 40.4132 23.66 40.1998 23.7596Z" fill="white"/>
<path d="M17.4075 49.4028V46.1629C21.1125 48.5516 25.5203 49.9332 30.253 49.9332C34.9857 49.9332 39.3934 48.5516 43.0985 46.1629V49.4028C43.0985 49.9406 42.927 50.4226 42.6371 50.7995L41.3988 52.4092H43.4297H46.7879C48.108 52.4092 49.1746 53.4781 49.1746 54.7674C49.1746 55.4081 48.9095 56.0005 48.4816 56.4407C48.0522 56.868 47.4665 57.1256 46.8164 57.1256H13.7181C12.4205 57.1256 11.3599 56.065 11.3599 54.7674C11.3599 54.1152 11.6191 53.5279 12.0488 53.0982C12.4785 52.6685 13.0659 52.4092 13.7181 52.4092H17.0763H19.066L17.8787 50.8125C17.5859 50.4187 17.4075 49.9283 17.4075 49.4028Z" stroke="white" stroke-width="2"/>
<defs>
<filter id="filter0_f_334_15627" x="3.5" y="-2.125" width="53.5352" height="64.25" filterUnits="userSpaceOnUse" color-interpolation-filters="sRGB">
<feFlood flood-opacity="0" result="BackgroundImageFix"/>
<feBlend mode="normal" in="SourceGraphic" in2="BackgroundImageFix" result="shape"/>
<feGaussianBlur stdDeviation="2" result="effect1_foregroundBlur_334_15627"/>
</filter>
<clipPath id="clip0_334_15627">
<rect width="60" height="60" fill="white"/>
</clipPath>
</defs>
</svg>
