<svg width="66" height="70" viewBox="0 0 66 70" fill="none" xmlns="http://www.w3.org/2000/svg">
<path d="M51.1959 30.5354C51.1959 40.4616 43.1491 48.5084 33.2229 48.5084C23.2968 48.5084 15.25 40.4616 15.25 30.5354C15.25 20.6093 23.2968 12.5625 33.2229 12.5625C43.1491 12.5625 51.1959 20.6093 51.1959 30.5354Z" stroke="white" stroke-width="2"/>
<path d="M29.8909 22.7446C28.5509 23.3731 27.46 25.3296 26.8552 26.6815C26.7366 26.9423 26.369 26.9305 26.2623 26.6696C25.6694 25.2585 24.5666 23.2426 23.1792 22.6023C22.9302 22.4837 22.9302 22.1398 23.1792 22.0212C24.5192 21.3928 25.6101 19.4362 26.2149 18.0844C26.3334 17.8235 26.701 17.8353 26.8078 18.0962C27.4007 19.5073 28.5035 21.5232 29.8909 22.1635C30.128 22.2821 30.128 22.626 29.8909 22.7446Z" fill="white"/>
<path d="M24.8271 35.8355C23.9022 36.2623 23.167 37.6023 22.7519 38.5272C22.6689 38.7051 22.4199 38.7051 22.3488 38.5154C21.9456 37.543 21.1867 36.1793 20.238 35.7287C20.072 35.6457 20.072 35.4086 20.238 35.3374C21.163 34.9105 21.8982 33.5706 22.3132 32.6456C22.3962 32.4678 22.6452 32.4678 22.7164 32.6575C23.1195 33.6299 23.8785 34.9935 24.8271 35.4441C24.9931 35.5153 25.005 35.7524 24.8271 35.8355Z" fill="white"/>
<path d="M41.4997 29.8003C40.5748 30.2272 39.8396 31.5672 39.4246 32.4921C39.3415 32.67 39.0925 32.67 39.0214 32.4802C38.6182 31.5079 37.8593 30.1442 36.9106 29.6936C36.7446 29.6106 36.7446 29.3734 36.9106 29.3023C37.8356 28.8754 38.5708 27.5354 38.9858 26.6105C39.0688 26.4326 39.3178 26.4326 39.389 26.6223C39.7922 27.5947 40.5511 28.9584 41.4997 29.409C41.6657 29.4801 41.6776 29.7173 41.4997 29.8003Z" fill="white"/>
<path d="M22.673 51.1681V48.7711C25.7326 50.6783 29.3428 51.7767 33.2109 51.7767C37.079 51.7767 40.6892 50.6783 43.7488 48.7711V51.1681C43.7488 51.5801 43.6176 51.9459 43.3989 52.2303L42.1606 53.84H44.1915H46.99C47.9994 53.84 48.8122 54.6575 48.8122 55.6385C48.8122 56.1251 48.6111 56.5776 48.2828 56.9158C47.9554 57.2411 47.5097 57.4371 47.0137 57.4371H19.4318C18.4425 57.4371 17.6333 56.6278 17.6333 55.6385C17.6333 55.1405 17.8309 54.6931 18.1586 54.3654C18.4863 54.0376 18.9337 53.84 19.4318 53.84H22.2303H24.2201L23.0328 52.2433C22.8087 51.942 22.673 51.5678 22.673 51.1681Z" stroke="white" stroke-width="2"/>
</svg>
