<svg width="47" height="56" viewBox="0 0 47 56" fill="none" xmlns="http://www.w3.org/2000/svg">
<g clip-path="url(#clip0_334_12980)">
<path d="M14 5.9377L14.1875 5.1877C14.375 3.1252 16.4375 1.6252 18.5 1.8127L42.6875 5.0002C44.75 5.1877 46.25 7.2502 46.0625 9.3127L40.8125 49.6252C40.625 51.6877 38.5625 53.1877 36.5 53.0002L32.9375 52.6252" stroke="white" stroke-width="2" stroke-miterlimit="10"/>
<path d="M33.5 20.75C35.5625 22.625 36.875 25.625 36.5 28.625C36.125 30.875 35.1875 32.75 33.5 34.25" stroke="white" stroke-miterlimit="10"/>
<path d="M29.5625 54.3125H5.1875C3.125 54.3125 1.25 52.625 1.25 50.375V9.875C1.25 7.8125 2.9375 5.9375 5.1875 5.9375H29.5625C31.625 5.9375 33.5 7.625 33.5 9.875V50.5625C33.5 52.625 31.8125 54.3125 29.5625 54.3125Z" stroke="white" stroke-width="2" stroke-miterlimit="10"/>
<path d="M16.8125 20.1875L8.75 34.25C8.5625 34.625 8.75 35.1875 9.3125 35.1875H25.625C26.1875 35.1875 26.375 34.625 26.1875 34.25L18.125 20.1875C17.75 19.625 17.1875 19.625 16.8125 20.1875Z" stroke="white" stroke-miterlimit="10"/>
<path d="M16.8125 39.875L8.75 25.8125C8.5625 25.4375 8.75 24.875 9.3125 24.875H25.625C26.1875 24.875 26.375 25.4375 26.1875 25.8125L18.125 39.875C17.75 40.25 17.1875 40.25 16.8125 39.875Z" stroke="white" stroke-miterlimit="10"/>
<path d="M17.375 32.1875C18.5141 32.1875 19.4375 31.2641 19.4375 30.125C19.4375 28.9859 18.5141 28.0625 17.375 28.0625C16.2359 28.0625 15.3125 28.9859 15.3125 30.125C15.3125 31.2641 16.2359 32.1875 17.375 32.1875Z" stroke="white" stroke-miterlimit="10"/>
</g>
<defs>
<clipPath id="clip0_334_12980">
<rect width="46.5" height="54.375" fill="white" transform="translate(0.5 0.875)"/>
</clipPath>
</defs>
</svg>
