<svg width="60" height="64" viewBox="0 0 60 64" fill="none" xmlns="http://www.w3.org/2000/svg">
<g clip-path="url(#clip0_334_12969)" filter="url(#filter0_f_334_12969)">
<path d="M21 9.9377L21.1875 9.1877C21.375 7.1252 23.4375 5.6252 25.5 5.8127L49.6875 9.0002C51.75 9.1877 53.25 11.2502 53.0625 13.3127L47.8125 53.6252C47.625 55.6877 45.5625 57.1877 43.5 57.0002L39.9375 56.6252" stroke="#FF2C52" stroke-width="3" stroke-miterlimit="10"/>
<path d="M40.5 24.75C42.5625 26.625 43.875 29.625 43.5 32.625C43.125 34.875 42.1875 36.75 40.5 38.25" stroke="#00FFF6" stroke-miterlimit="10"/>
<path d="M36.5625 58.3125H12.1875C10.125 58.3125 8.25 56.625 8.25 54.375V13.875C8.25 11.8125 9.9375 9.9375 12.1875 9.9375H36.5625C38.625 9.9375 40.5 11.625 40.5 13.875V54.5625C40.5 56.625 38.8125 58.3125 36.5625 58.3125Z" stroke="#FF2C52" stroke-width="3" stroke-miterlimit="10"/>
<path d="M23.8125 24.1875L15.75 38.25C15.5625 38.625 15.75 39.1875 16.3125 39.1875H32.625C33.1875 39.1875 33.375 38.625 33.1875 38.25L25.125 24.1875C24.75 23.625 24.1875 23.625 23.8125 24.1875Z" stroke="#00FFF6" stroke-miterlimit="10"/>
<path d="M23.8125 43.875L15.75 29.8125C15.5625 29.4375 15.75 28.875 16.3125 28.875H32.625C33.1875 28.875 33.375 29.4375 33.1875 29.8125L25.125 43.875C24.75 44.25 24.1875 44.25 23.8125 43.875Z" stroke="#00FFF6" stroke-miterlimit="10"/>
<path d="M24.375 36.1875C25.5141 36.1875 26.4375 35.2641 26.4375 34.125C26.4375 32.9859 25.5141 32.0625 24.375 32.0625C23.2359 32.0625 22.3125 32.9859 22.3125 34.125C22.3125 35.2641 23.2359 36.1875 24.375 36.1875Z" stroke="#00FFF6" stroke-miterlimit="10"/>
</g>
<g clip-path="url(#clip1_334_12969)">
<path d="M21 9.9377L21.1875 9.1877C21.375 7.1252 23.4375 5.6252 25.5 5.8127L49.6875 9.0002C51.75 9.1877 53.25 11.2502 53.0625 13.3127L47.8125 53.6252C47.625 55.6877 45.5625 57.1877 43.5 57.0002L39.9375 56.6252" stroke="white" stroke-width="2" stroke-miterlimit="10"/>
<path d="M40.5 24.75C42.5625 26.625 43.875 29.625 43.5 32.625C43.125 34.875 42.1875 36.75 40.5 38.25" stroke="white" stroke-miterlimit="10"/>
<path d="M36.5625 58.3125H12.1875C10.125 58.3125 8.25 56.625 8.25 54.375V13.875C8.25 11.8125 9.9375 9.9375 12.1875 9.9375H36.5625C38.625 9.9375 40.5 11.625 40.5 13.875V54.5625C40.5 56.625 38.8125 58.3125 36.5625 58.3125Z" stroke="white" stroke-width="2" stroke-miterlimit="10"/>
<path d="M23.8125 24.1875L15.75 38.25C15.5625 38.625 15.75 39.1875 16.3125 39.1875H32.625C33.1875 39.1875 33.375 38.625 33.1875 38.25L25.125 24.1875C24.75 23.625 24.1875 23.625 23.8125 24.1875Z" stroke="white" stroke-miterlimit="10"/>
<path d="M23.8125 43.875L15.75 29.8125C15.5625 29.4375 15.75 28.875 16.3125 28.875H32.625C33.1875 28.875 33.375 29.4375 33.1875 29.8125L25.125 43.875C24.75 44.25 24.1875 44.25 23.8125 43.875Z" stroke="white" stroke-miterlimit="10"/>
<path d="M24.375 36.1875C25.5141 36.1875 26.4375 35.2641 26.4375 34.125C26.4375 32.9859 25.5141 32.0625 24.375 32.0625C23.2359 32.0625 22.3125 32.9859 22.3125 34.125C22.3125 35.2641 23.2359 36.1875 24.375 36.1875Z" stroke="white" stroke-miterlimit="10"/>
</g>
<defs>
<filter id="filter0_f_334_12969" x="3.5" y="0.875" width="54.5" height="62.375" filterUnits="userSpaceOnUse" color-interpolation-filters="sRGB">
<feFlood flood-opacity="0" result="BackgroundImageFix"/>
<feBlend mode="normal" in="SourceGraphic" in2="BackgroundImageFix" result="shape"/>
<feGaussianBlur stdDeviation="2" result="effect1_foregroundBlur_334_12969"/>
</filter>
<clipPath id="clip0_334_12969">
<rect width="46.5" height="54.375" fill="white" transform="translate(7.5 4.875)"/>
</clipPath>
<clipPath id="clip1_334_12969">
<rect width="46.5" height="54.375" fill="white" transform="translate(7.5 4.875)"/>
</clipPath>
</defs>
</svg>
