<svg width="208" height="44" viewBox="0 0 208 44" fill="none" xmlns="http://www.w3.org/2000/svg">
<g filter="url(#filter0_d_453_10888)">
<path d="M35.7906 33.7202C35.9384 34.5336 36.456 35.273 37.1954 35.9384C37.9348 36.6039 38.7482 36.8997 39.5615 36.8997H30.2451C31.0584 36.8997 31.7239 36.6039 32.0936 36.0124C32.4633 35.4209 32.5372 34.6075 32.3154 33.7202L26.5481 10.0595L21.668 29.9493L19.8935 36.8997L19.0062 33.4245L13.3128 10.0595L7.47156 33.7202C7.24974 34.6075 7.32368 35.3469 7.84126 36.0124C8.2849 36.6039 8.95036 36.9736 9.68976 36.9736H2C2.81334 36.9736 3.55274 36.6778 4.36608 36.0124C5.10548 35.3469 5.54912 34.6815 5.77094 33.8681L12.0558 8.35884H11.9819H11.908C11.4643 8.35884 10.9467 8.2849 10.577 8.13702C10.0595 8.06308 9.61582 7.84126 9.24612 7.61944C10.1334 7.69338 10.8728 7.61944 11.5383 7.39762C12.2777 7.10186 12.8692 6.73216 13.3868 6.21458C13.8304 5.77094 14.2001 5.10548 14.4219 4.36608C14.4959 3.99638 14.5698 3.62668 14.5698 3.25698C14.5698 2.88728 14.5698 2.44364 14.4959 2.07394C14.7177 2.44364 14.9395 2.88728 15.0874 3.25698C15.2353 3.70062 15.3831 4.07032 15.3831 4.44002L20.7808 26.3262L25.2172 8.2849H25.1432H25.0693C24.6256 8.2849 24.1081 8.21096 23.7384 8.06308C23.2947 7.9152 22.8511 7.76732 22.4814 7.5455C23.3687 7.61944 24.1081 7.5455 24.8475 7.32368C25.5869 7.02792 26.1784 6.65822 26.622 6.14064C27.0657 5.697 27.4354 5.03154 27.6572 4.29214C27.7311 3.92244 27.8051 3.55274 27.8051 3.18304C27.8051 2.81334 27.805 2.3697 27.7311 2C27.9529 2.3697 28.1747 2.7394 28.3226 3.1091C28.4705 3.4788 28.6184 3.92244 28.6184 4.29214L35.7906 33.7202Z" fill="white"/>
<path d="M58.8592 8.87529L50.2082 19.9663V27.0645C50.2082 27.5821 50.3561 28.0257 50.7997 28.4694C51.1694 28.8391 51.6131 29.0609 52.2046 29.0609C51.6131 29.0609 51.1694 29.2827 50.7997 29.6524C50.43 30.0221 50.2082 30.4658 50.2082 31.0573V34.0888C50.2082 34.9022 50.504 35.5676 51.0215 36.1591C51.6131 36.7507 52.2785 37.0464 53.0919 37.0464H43.9233C44.7366 37.0464 45.4021 36.7507 45.9936 36.1591C46.5851 35.5676 46.807 34.9022 46.807 34.0888V30.9833C46.807 30.4658 46.5851 30.0221 46.2154 29.5785C45.8457 29.2088 45.4021 28.987 44.8845 28.987C45.4021 28.987 45.8457 28.7651 46.2154 28.3954C46.5851 28.0257 46.807 27.5821 46.807 26.9906V21.0754L37.1948 8.80135C36.6032 8.06195 35.9378 7.32255 35.1984 6.73103C34.459 6.13951 33.6456 5.84375 32.9062 5.84375H34.9766H39.1911H42.4445C41.6312 5.84375 41.1136 6.13951 40.8918 6.73103C40.6699 7.32255 40.8178 7.91407 41.2615 8.50559L49.0991 18.5614L56.9367 8.50559C57.3804 7.91407 57.4543 7.32255 57.3064 6.73103C57.0846 6.13951 56.567 5.84375 55.8276 5.84375H59.081H61.1513H63.2216C62.4083 5.84375 61.595 6.13951 60.8556 6.73103C60.1162 7.39649 59.4507 8.06195 58.8592 8.87529ZM49.0252 15.6778C49.0252 14.9384 48.7294 14.3468 48.2858 13.8293C47.7682 13.3117 47.1027 13.0899 46.4373 13.0899C47.1767 13.0899 47.7682 12.868 48.2858 12.2765C48.8033 11.7589 49.0252 11.1674 49.0252 10.428C49.0252 11.1674 49.3209 11.8329 49.8385 12.2765C50.3561 12.7941 50.9476 13.0899 51.687 13.0899C50.9476 13.0899 50.2821 13.3856 49.8385 13.8293C49.3209 14.3468 49.0252 14.9384 49.0252 15.6778Z" fill="white"/>
<path d="M81.5598 23.5162C82.2252 24.4035 82.5949 25.3647 82.8168 26.3999C83.0386 27.4351 82.9646 28.5442 82.8168 29.5793C82.5949 30.6884 82.1513 31.7236 81.4858 32.6109C80.8204 33.5721 80.081 34.3115 79.1937 34.9769C78.1585 35.7163 76.9755 36.2339 75.7185 36.5297C74.4615 36.8254 73.1306 36.9733 71.8736 36.9733C71.43 36.9733 71.0603 36.8994 70.6167 36.8994C69.1379 36.6776 67.6591 36.3079 66.2542 35.7163C64.8493 35.1248 63.5184 34.4594 62.1875 33.72V30.6884V27.6569C62.853 29.0617 63.6663 30.3927 64.6275 31.6496C65.5887 32.9066 66.7718 33.8678 68.2506 34.4594C69.4336 34.9769 70.6167 35.2727 71.8736 35.2727C73.1306 35.2727 74.3876 35.1248 75.5706 34.7551C76.384 34.5333 77.1973 34.1636 77.9367 33.72C78.6761 33.2763 79.2676 32.6848 79.7113 32.0193C80.3767 30.8363 80.5246 29.5793 80.081 28.2484C79.9331 27.6569 79.6373 27.1393 79.2676 26.6957C78.8979 26.252 78.4543 25.8084 78.0107 25.4387C77.3452 24.9211 76.6797 24.4035 75.9403 24.0338C75.2009 23.5902 74.3876 23.2205 73.6482 22.9247C72.9088 22.555 72.1694 22.1853 71.43 21.8156C70.6906 21.4459 69.8773 21.1502 69.1379 20.7805C68.1027 20.4108 67.0675 19.8932 66.0324 19.1538C64.9233 18.4883 64.1839 17.4532 63.6663 16.1962C63.1487 14.8653 63.0008 13.4604 63.2966 11.9816C63.5924 10.5028 64.2578 9.24583 65.219 8.21067C66.0324 7.39733 67.0675 6.73187 68.3245 6.28823C69.5815 5.84459 70.8385 5.54883 72.2433 5.54883C72.9827 5.54883 73.87 5.62277 74.9052 5.84459C75.9403 6.06641 77.0494 6.43611 78.1585 7.10157C78.3804 6.80581 78.6022 6.58399 78.8979 6.36217C79.1198 6.21429 79.3416 6.06641 79.5634 5.99247C79.8592 5.84459 80.2289 5.69671 80.7464 5.62277C81.264 5.54883 81.6337 5.54883 82.0774 5.62277C81.6337 5.69671 81.338 5.84459 81.0422 5.99247C80.8204 6.14035 80.5986 6.28823 80.3767 6.43611C79.9331 6.87975 79.6373 7.39733 79.4895 7.98885C79.3416 8.58037 79.2676 9.02401 79.2676 9.39371V9.91129V9.98523H79.1937V9.91129L79.0458 9.76341C77.0494 8.21067 74.7573 7.39733 72.1694 7.39733C70.9124 7.39733 69.6554 7.69309 68.3985 8.28461C67.1415 8.80219 66.3281 9.46765 65.8106 10.281C65.219 11.0943 64.9972 12.0555 64.9972 13.0907C64.9972 13.978 65.293 14.7913 65.9584 15.3828C66.6239 15.9744 67.2894 16.4919 68.1027 16.7877C69.2118 17.3053 70.3209 17.7489 71.5039 18.1186C72.687 18.4883 73.7961 18.858 74.9052 19.3017C76.0882 19.7453 77.3452 20.2629 78.6022 20.9283C79.7852 21.5938 80.8204 22.4071 81.5598 23.5162ZM72.2433 32.463C72.2433 31.5018 71.8736 30.6884 71.2082 30.023C70.5427 29.3575 69.7294 28.9878 68.7682 28.9878C69.7294 28.9878 70.5427 28.692 71.2082 28.0266C71.8736 27.3611 72.2433 26.5478 72.2433 25.5866C72.2433 26.5478 72.5391 27.3611 73.2046 28.0266C73.87 28.692 74.6834 28.9878 75.6446 28.9878C74.6834 28.9878 73.87 29.3575 73.2046 30.023C72.5391 30.6884 72.2433 31.5018 72.2433 32.463ZM72.2433 10.9464C72.2433 11.538 72.4652 12.0555 72.8349 12.4252C73.2046 12.7949 73.7221 13.0168 74.3137 13.0168C73.7221 13.0168 73.2785 13.2386 72.8349 13.6083C72.3912 13.978 72.2433 14.4956 72.2433 15.0871C72.2433 14.4956 72.0215 13.978 71.6518 13.6083C71.2821 13.2386 70.7645 13.0168 70.173 13.0168H70.0991C70.6906 13.0168 71.2082 12.7949 71.5779 12.4252C71.9476 12.0555 72.2433 11.538 72.2433 10.9464Z" fill="white"/>
<path d="M85.8481 11.0935C86.5135 11.1674 87.1051 11.0935 87.6966 10.7977C88.2881 10.502 88.7317 10.1323 89.1014 9.61469C89.4711 9.09711 89.693 8.50559 89.693 7.91407C89.9887 8.65347 90.0627 9.46681 89.7669 10.2801C89.4711 11.0935 88.9536 11.685 88.2142 11.9808C87.4748 12.2765 86.6614 12.3505 85.8481 12.0547C85.0347 11.7589 84.4432 11.2414 84.1475 10.502C84.5911 10.8717 85.1826 11.0935 85.8481 11.0935ZM98.5658 34.0149C98.5658 34.8282 98.8615 35.4937 99.453 36.0852C100.045 36.6767 100.71 36.9725 101.523 36.9725H92.3548C93.1681 36.9725 93.8336 36.6767 94.4251 36.0852C95.0166 35.4937 95.3124 34.8282 95.3124 34.0149V21.1493C95.3124 20.6317 95.0906 20.1881 94.7209 19.7445C94.3512 19.3748 93.9075 19.1529 93.316 19.1529C93.8336 19.1529 94.2772 19.0051 94.7209 18.5614C95.0906 18.1917 95.3124 17.7481 95.3124 17.1566V7.54437H88.2881C88.1402 8.06195 87.8445 8.50559 87.4748 8.72741C87.1051 8.94923 86.8832 9.17105 86.6614 9.24499C86.3657 9.39287 86.0699 9.46681 85.6263 9.54075C85.1826 9.61469 84.8129 9.61469 84.5172 9.54075C84.8869 9.46681 85.1826 9.39287 85.3305 9.24499C85.5523 9.09711 85.7002 9.02317 85.922 8.87529C86.3657 8.35771 86.6614 7.84013 86.7354 7.17467C86.8093 6.58315 86.8093 6.13951 86.8093 5.84375H106.995C106.995 6.13951 107.069 6.58315 107.143 7.17467C107.217 7.76619 107.512 8.35771 107.956 8.87529C108.104 9.02317 108.252 9.17105 108.474 9.31893C108.696 9.39287 108.991 9.54075 109.361 9.61469C109.065 9.61469 108.622 9.61469 108.252 9.54075C107.808 9.46681 107.512 9.39287 107.217 9.24499C107.069 9.09711 106.773 8.94923 106.477 8.65347C106.108 8.43165 105.886 7.98801 105.664 7.47043H98.6397V17.1566C98.6397 17.7481 98.8615 18.1917 99.2312 18.5614C99.6009 18.9311 100.045 19.1529 100.636 19.1529C100.118 19.1529 99.6749 19.3748 99.2312 19.7445C98.8615 20.1142 98.6397 20.5578 98.6397 21.1493V34.0149H98.5658ZM104.777 9.61469C105.146 10.1323 105.59 10.5759 106.182 10.7977C106.773 11.0935 107.365 11.1674 108.03 11.0935C108.696 11.0195 109.213 10.7977 109.731 10.428C109.361 11.1674 108.769 11.7589 108.03 11.9808C107.217 12.2765 106.477 12.2765 105.664 11.9068C104.925 11.5371 104.333 10.9456 104.111 10.2062C103.816 9.39287 103.815 8.65347 104.185 7.84013C104.259 8.50559 104.407 9.09711 104.777 9.61469Z" fill="white"/>
<path d="M117.051 34.0149C117.051 34.8282 117.347 35.4937 117.938 36.0852C118.53 36.6767 119.195 36.9725 120.008 36.9725H110.84C111.653 36.9725 112.319 36.6767 112.91 36.0852C113.502 35.4937 113.797 34.8282 113.797 34.0149V21.1493C113.797 20.6317 113.576 20.1881 113.206 19.7445C112.836 19.3748 112.393 19.1529 111.801 19.1529C112.319 19.1529 112.762 19.0051 113.206 18.5614C113.576 18.1917 113.797 17.7481 113.797 17.1566V8.80135C113.797 7.98801 113.502 7.32255 112.91 6.73103C112.319 6.13951 111.653 5.84375 110.84 5.84375H120.008C119.195 5.84375 118.53 6.13951 117.938 6.73103C117.347 7.32255 117.051 7.98801 117.051 8.80135V17.2305C117.051 17.822 117.273 18.2657 117.642 18.6354C118.012 19.0051 118.456 19.2269 119.047 19.2269C118.53 19.2269 118.086 19.4487 117.642 19.8184C117.273 20.1881 117.051 20.6317 117.051 21.2233V34.0149Z" fill="white"/>
<path d="M145.887 35.3458C146.626 36.0113 147.218 36.4549 147.735 36.7507C148.253 37.0464 148.696 37.1943 149.066 37.3422L148.992 37.4161C147.809 37.1943 146.626 36.7507 145.369 36.1591C144.186 35.5676 143.003 34.6803 141.968 33.4234C141.672 33.1276 141.228 32.4621 140.563 31.427C139.898 30.4658 139.084 29.2827 138.197 27.9518C137.31 26.6209 136.348 25.216 135.387 23.8112C134.426 22.3324 133.539 21.0014 132.725 19.7445C131.912 18.4875 131.173 17.4523 130.655 16.639L127.993 18.6354V27.0645C127.993 27.5821 128.215 28.0257 128.585 28.4694C128.954 28.8391 129.398 29.0609 129.99 29.0609C129.472 29.0609 129.028 29.2827 128.585 29.6524C128.215 30.0221 127.993 30.4658 127.993 31.0573V34.0888C127.993 34.9022 128.289 35.5676 128.88 36.1591C129.472 36.7507 130.137 37.0464 130.951 37.0464H121.782C122.596 37.0464 123.261 36.7507 123.853 36.1591C124.444 35.5676 124.74 34.9022 124.74 34.0888V30.9833C124.74 30.4658 124.518 30.0221 124.148 29.5785C123.779 29.2088 123.335 28.987 122.743 28.987C123.261 28.987 123.705 28.7651 124.148 28.3954C124.518 28.0257 124.74 27.5821 124.74 26.9906V8.80135C124.74 7.98801 124.444 7.32255 123.853 6.73103C123.261 6.13951 122.596 5.84375 121.782 5.84375H124.74H128.067H131.025C130.211 5.84375 129.546 6.13951 128.954 6.73103C128.363 7.32255 128.067 7.98801 128.067 8.80135V16.565L139.528 7.91407C140.119 7.47043 140.341 7.02679 140.267 6.58315C140.193 6.13951 139.75 5.84375 138.936 5.84375H146.922C146.108 5.84375 145.221 6.13951 144.186 6.65709C143.151 7.17467 142.264 7.84013 141.45 8.43165L132.873 15.0123C133.465 15.9735 134.13 17.1566 135.017 18.6354C135.905 20.1142 136.792 21.6669 137.827 23.3675C138.788 25.0681 139.824 26.6948 140.859 28.3215C141.894 29.9482 142.855 31.353 143.742 32.61C144.556 33.867 145.295 34.7543 145.887 35.3458Z" fill="white"/>
<path d="M178.421 19.3031C178.125 16.9371 177.237 14.7189 175.907 12.6485C175.833 12.5746 175.759 12.4267 175.611 12.131L175.315 11.7613C175.019 11.2437 174.871 10.7261 174.945 10.1346C175.019 9.54306 175.241 9.02548 175.685 8.65578C175.241 9.09942 174.724 9.32124 174.132 9.39518C173.54 9.46912 173.023 9.32124 172.505 9.02548L172.136 8.80366C171.914 8.65578 171.766 8.58184 171.618 8.5079C169.548 7.10304 167.33 6.2897 164.963 5.99394C162.597 5.69818 160.231 5.92 157.939 6.6594C155.647 7.3988 153.577 8.65578 151.802 10.5043H151.728C149.954 12.2788 148.697 14.3492 147.957 16.7152C147.218 19.0074 146.996 21.3735 147.292 23.7395C147.588 26.1056 148.401 28.3238 149.806 30.3941C149.88 30.542 149.954 30.6899 150.175 30.9117C150.323 31.1335 150.397 31.2814 150.397 31.2814C150.693 31.7251 150.841 32.3166 150.767 32.9081C150.693 33.4996 150.471 34.0172 150.028 34.4608C150.471 34.0172 150.989 33.7954 151.58 33.7214C152.172 33.6475 152.689 33.7954 153.207 34.0911L153.577 34.3869C153.799 34.5348 153.946 34.6087 154.094 34.6826C156.165 36.0875 158.383 36.9008 160.749 37.1966C163.115 37.4924 165.481 37.2705 167.773 36.5311C170.065 35.7917 172.136 34.5348 173.91 32.6863H173.984V32.4644C175.759 30.6899 177.016 28.6196 177.755 26.3274C178.494 24.0353 178.716 21.6692 178.421 19.3031ZM175.167 24.4789C174.502 26.2535 173.467 27.8802 172.136 29.4329C171.988 29.5069 171.766 29.7287 171.47 30.0984C171.174 30.4681 170.953 30.6899 170.805 30.7638C169.326 32.0947 167.625 33.1299 165.851 33.7954C164.076 34.4608 162.228 34.7566 160.453 34.6826C158.679 34.6087 156.978 34.1651 155.425 33.3517C154.834 33.056 154.464 32.6123 154.242 32.0208C154.094 31.5772 154.094 31.1335 154.168 30.6159C154.242 30.1723 154.538 29.7287 154.834 29.359C154.242 29.9505 153.429 30.2463 152.542 30.0984C152.098 30.0244 151.802 29.8765 151.506 29.5808C151.211 29.285 150.989 28.9893 150.767 28.6196C150.028 27.0668 149.584 25.4402 149.51 23.6656C149.436 21.891 149.732 20.1165 150.397 18.3419C151.063 16.5674 152.098 14.9407 153.355 13.3879L154.02 12.7225C154.316 12.4267 154.538 12.2049 154.686 12.131C156.165 10.8 157.865 9.76488 159.64 9.09942C161.414 8.43396 163.263 8.1382 165.037 8.21214C166.812 8.28608 168.513 8.72972 170.065 9.54306C170.657 9.83882 171.027 10.3564 171.248 10.9479C171.396 11.3916 171.396 11.8352 171.322 12.3528C171.248 12.7964 170.953 13.2401 170.657 13.6098C171.248 12.9443 172.062 12.7225 172.949 12.8704C173.393 12.9443 173.688 13.0922 173.984 13.3879C174.28 13.6837 174.502 13.9795 174.724 14.3492C175.463 15.9019 175.907 17.5286 175.981 19.3031C176.054 21.0777 175.833 22.7044 175.167 24.4789Z" fill="white"/>
<path d="M200.603 23.5162C201.268 24.4035 201.638 25.3647 201.86 26.3999C202.082 27.4351 202.008 28.5442 201.86 29.5793C201.638 30.6884 201.194 31.7236 200.529 32.6109C199.863 33.5721 199.124 34.3115 198.163 34.9769C197.128 35.7163 195.945 36.2339 194.688 36.5297C193.431 36.8254 192.1 36.9733 190.843 36.9733C190.399 36.9733 190.029 36.8994 189.586 36.8994C188.107 36.6776 186.628 36.3079 185.297 35.7163C183.892 35.1248 182.561 34.4594 181.23 33.72V30.6884V27.6569C181.896 29.0617 182.709 30.3927 183.67 31.6496C184.632 32.9066 185.815 33.8678 187.294 34.4594C188.477 34.9769 189.66 35.2727 190.917 35.2727C192.174 35.2727 193.431 35.1248 194.614 34.7551C195.427 34.5333 196.24 34.1636 196.98 33.72C197.719 33.2763 198.311 32.6848 198.754 32.0193C199.42 30.8363 199.568 29.5793 199.124 28.2484C198.976 27.6569 198.68 27.1393 198.311 26.6957C197.941 26.252 197.497 25.8084 197.054 25.4387C196.388 24.9211 195.723 24.4035 194.983 24.0338C194.244 23.5902 193.431 23.2205 192.691 22.9247C191.952 22.555 191.212 22.1853 190.473 21.8156C189.734 21.4459 188.92 21.1502 188.181 20.7805C187.146 20.4108 186.111 19.8932 185.075 19.1538C183.966 18.4883 183.227 17.4532 182.709 16.1962C182.192 14.8653 182.044 13.4604 182.34 11.9816C182.635 10.5028 183.301 9.24583 184.262 8.21067C185.075 7.39733 186.111 6.73187 187.367 6.28823C188.624 5.84459 189.881 5.54883 191.286 5.54883C192.026 5.54883 192.913 5.62277 193.948 5.84459C194.983 6.06641 196.092 6.43611 197.202 7.10157C197.423 6.80581 197.645 6.58399 197.941 6.36217C198.163 6.21429 198.385 6.06641 198.606 5.99247C198.902 5.84459 199.272 5.69671 199.789 5.62277C200.307 5.54883 200.751 5.54883 201.12 5.62277C200.677 5.69671 200.381 5.84459 200.085 5.99247C199.789 6.14035 199.642 6.28823 199.42 6.43611C198.976 6.87975 198.68 7.39733 198.532 7.98885C198.385 8.58037 198.311 9.02401 198.311 9.39371V9.91129V9.98523H198.237V9.91129L198.089 9.76341C196.092 8.21067 193.8 7.39733 191.212 7.39733C189.955 7.39733 188.698 7.69309 187.441 8.28461C186.111 8.80219 185.371 9.46765 184.78 10.281C184.188 11.0943 183.966 12.0555 183.966 13.0907C183.966 13.978 184.262 14.7913 184.927 15.3828C185.593 15.9744 186.258 16.4919 186.998 16.7877C188.107 17.3053 189.216 17.7489 190.399 18.1186C191.582 18.4883 192.691 18.858 193.8 19.3017C194.983 19.7453 196.24 20.2629 197.497 20.9283C198.754 21.5938 199.789 22.4071 200.603 23.5162ZM191.212 32.463C191.212 31.5018 190.843 30.6884 190.177 30.023C189.512 29.3575 188.698 28.9878 187.737 28.9878C188.698 28.9878 189.512 28.692 190.177 28.0266C190.843 27.3611 191.212 26.5478 191.212 25.5866C191.212 26.5478 191.582 27.3611 192.174 28.0266C192.839 28.692 193.652 28.9878 194.614 28.9878C193.652 28.9878 192.839 29.3575 192.174 30.023C191.508 30.6884 191.212 31.5018 191.212 32.463ZM191.212 10.9464C191.212 11.538 191.434 12.0555 191.804 12.4252C192.174 12.7949 192.691 13.0168 193.283 13.0168C192.691 13.0168 192.248 13.2386 191.804 13.6083C191.36 13.978 191.212 14.4956 191.212 15.0871C191.212 14.4956 190.991 13.978 190.621 13.6083C190.251 13.2386 189.734 13.0168 189.216 13.0168H189.142C189.734 13.0168 190.251 12.7949 190.621 12.4252C190.991 12.0555 191.212 11.538 191.212 10.9464Z" fill="white"/>
</g>
<defs>
<filter id="filter0_d_453_10888" x="0" y="0" width="208" height="43.416" filterUnits="userSpaceOnUse" color-interpolation-filters="sRGB">
<feFlood flood-opacity="0" result="BackgroundImageFix"/>
<feColorMatrix in="SourceAlpha" type="matrix" values="0 0 0 0 0 0 0 0 0 0 0 0 0 0 0 0 0 0 127 0" result="hardAlpha"/>
<feOffset dx="2" dy="2"/>
<feGaussianBlur stdDeviation="2"/>
<feComposite in2="hardAlpha" operator="out"/>
<feColorMatrix type="matrix" values="0 0 0 0 1 0 0 0 0 1 0 0 0 0 1 0 0 0 0.25 0"/>
<feBlend mode="normal" in2="BackgroundImageFix" result="effect1_dropShadow_453_10888"/>
<feBlend mode="normal" in="SourceGraphic" in2="effect1_dropShadow_453_10888" result="shape"/>
</filter>
</defs>
</svg>
