<svg width="55" height="56" viewBox="0 0 55 56" fill="none" xmlns="http://www.w3.org/2000/svg">
<g filter="url(#filter0_f_1144_4002)">
<path d="M27.3213 43C19.037 43 12.3213 36.2843 12.3213 28C12.3213 19.7157 19.037 13 27.3213 13C35.6056 13 42.3213 19.7157 42.3213 28C42.3213 36.2843 35.6056 43 27.3213 43Z" stroke="#FF6B86" stroke-width="2" stroke-miterlimit="10"/>
<path d="M24.8213 22.375L31.0713 28L24.8213 33.625" stroke="#FF6B86" stroke-width="2" stroke-linecap="round" stroke-linejoin="round"/>
</g>
<path d="M27.3213 43C19.037 43 12.3213 36.2843 12.3213 28C12.3213 19.7157 19.037 13 27.3213 13C35.6056 13 42.3213 19.7157 42.3213 28C42.3213 36.2843 35.6056 43 27.3213 43Z" stroke="white" stroke-miterlimit="10"/>
<path d="M24.8213 22.375L31.0713 28L24.8213 33.625" stroke="white" stroke-linecap="round" stroke-linejoin="round"/>
<defs>
<filter id="filter0_f_1144_4002" x="3.32129" y="4" width="48" height="48" filterUnits="userSpaceOnUse" color-interpolation-filters="sRGB">
<feFlood flood-opacity="0" result="BackgroundImageFix"/>
<feBlend mode="normal" in="SourceGraphic" in2="BackgroundImageFix" result="shape"/>
<feGaussianBlur stdDeviation="2" result="effect1_foregroundBlur_1144_4002"/>
</filter>
</defs>
</svg>
