<svg width="166" height="60" viewBox="0 0 166 60" fill="none" xmlns="http://www.w3.org/2000/svg">
<g clip-path="url(#clip0_571_14559)">
<g filter="url(#filter0_f_571_14559)">
<path d="M42.3567 26.4283C42.3567 34.2588 36.0088 40.6067 28.1783 40.6067C20.3479 40.6067 14 34.2588 14 26.4283C14 18.5979 20.3479 12.25 28.1783 12.25C36.0088 12.25 42.3567 18.5979 42.3567 26.4283Z" stroke="#FF2C52" stroke-width="2"/>
<path d="M23.2589 20.9797C23.1189 21.1796 22.9875 21.3854 22.8651 21.5911C22.734 21.3619 22.5917 21.1325 22.4389 20.9105C22.1898 20.5483 21.8898 20.172 21.538 19.8451C21.8716 19.5316 22.158 19.1747 22.3975 18.8326C22.5375 18.6327 22.669 18.4269 22.7913 18.2211C22.9225 18.4504 23.0647 18.6798 23.2175 18.9018C23.4667 19.264 23.7667 19.6403 24.1184 19.9672C23.7848 20.2806 23.4984 20.6376 23.2589 20.9797Z" fill="white" stroke="#00FFF6" stroke-width="2"/>
<path d="M19.6313 29.9662C19.7547 30.1447 19.8983 30.3322 20.0625 30.5122C19.9084 30.6825 19.7739 30.8584 19.6584 31.0241C19.658 31.0247 19.6576 31.0252 19.6573 31.0257C19.6453 31.008 19.6332 30.9903 19.621 30.9727C19.4976 30.7942 19.3541 30.6066 19.1898 30.4267C19.3439 30.2563 19.4784 30.0804 19.5939 29.9148C19.5943 29.9142 19.5947 29.9137 19.5951 29.9131C19.607 29.9309 19.6191 29.9486 19.6313 29.9662Z" fill="white" stroke="#00FFF6" stroke-width="2"/>
<path d="M32.9692 25.1376C33.0926 25.316 33.2361 25.5036 33.4004 25.6836C33.2463 25.8539 33.1118 26.0298 32.9963 26.1955C32.9959 26.196 32.9955 26.1966 32.9952 26.1971C32.9832 26.1794 32.9711 26.1617 32.9589 26.1441C32.8355 25.9656 32.6919 25.778 32.5277 25.598C32.6818 25.4277 32.8163 25.2518 32.9318 25.0862C32.9322 25.0856 32.9326 25.0851 32.9329 25.0845C32.9449 25.1023 32.957 25.12 32.9692 25.1376Z" fill="white" stroke="#00FFF6" stroke-width="2"/>
<path d="M19.9385 42.9347V41.3728C22.3504 42.803 25.1637 43.6217 28.1688 43.6217C31.1739 43.6217 33.9873 42.803 36.3992 41.3728V42.9347C36.3992 43.2211 36.3083 43.4707 36.1607 43.6626L34.9224 45.2723H36.9533H39.1921C39.8908 45.2723 40.4499 45.8384 40.4499 46.5111C40.4499 46.8436 40.3128 47.1562 40.0841 47.3924C39.8587 47.6157 39.5529 47.7499 39.2111 47.7499H17.1455C16.4646 47.7499 15.9067 47.1921 15.9067 46.5111C15.9067 46.1672 16.0427 45.8597 16.2684 45.634C16.4942 45.4082 16.8016 45.2723 17.1455 45.2723H19.3844H21.3741L20.1868 43.6756C20.0315 43.4668 19.9385 43.2088 19.9385 42.9347Z" stroke="#FF2C52" stroke-width="2"/>
</g>
</g>
<path d="M42.8567 26.4283C42.8567 34.535 36.285 41.1067 28.1783 41.1067C20.0717 41.1067 13.5 34.535 13.5 26.4283C13.5 18.3217 20.0717 11.75 28.1783 11.75C36.285 11.75 42.8567 18.3217 42.8567 26.4283Z" stroke="white"/>
<path d="M25.5129 20.1955C24.4409 20.6983 23.5682 22.2635 23.0844 23.345C22.9895 23.5537 22.6954 23.5442 22.61 23.3355C22.1357 22.2066 21.2535 20.5939 20.1436 20.0816C19.9443 19.9868 19.9443 19.7117 20.1436 19.6168C21.2155 19.114 22.0883 17.5488 22.5721 16.4673C22.667 16.2586 22.961 16.2681 23.0464 16.4768C23.5207 17.6057 24.403 19.2184 25.5129 19.7306C25.7026 19.8255 25.7026 20.1006 25.5129 20.1955Z" fill="white"/>
<path d="M21.4618 30.6687C20.7218 31.0102 20.1337 32.0821 19.8017 32.8221C19.7353 32.9644 19.536 32.9644 19.4791 32.8126C19.1566 32.0347 18.5494 30.9438 17.7905 30.5833C17.6577 30.5169 17.6577 30.3271 17.7905 30.2702C18.5305 29.9287 19.1186 28.8567 19.4507 28.1168C19.5171 27.9745 19.7163 27.9745 19.7732 28.1263C20.0957 28.9042 20.7029 29.9951 21.4618 30.3556C21.5946 30.4125 21.6041 30.6022 21.4618 30.6687Z" fill="white"/>
<path d="M34.7997 25.84C34.0597 26.1816 33.4716 27.2535 33.1395 27.9935C33.0731 28.1358 32.8739 28.1358 32.817 27.984C32.4945 27.2061 31.8873 26.1151 31.1284 25.7547C30.9956 25.6883 30.9956 25.4985 31.1284 25.4416C31.8684 25.1001 32.4565 24.0281 32.7885 23.2882C32.855 23.1459 33.0542 23.1459 33.1111 23.2977C33.4336 24.0756 34.0408 25.1665 34.7997 25.527C34.9325 25.5839 34.942 25.7736 34.7997 25.84Z" fill="white"/>
<path d="M19.4385 42.9347V40.4654C21.9345 42.1449 24.9365 43.1217 28.1688 43.1217C31.4011 43.1217 34.4032 42.1449 36.8992 40.4654V42.9347C36.8992 43.3293 36.7731 43.6865 36.557 43.9675L35.9379 44.7723H36.9533H39.1921C40.1628 44.7723 40.9499 45.5581 40.9499 46.5111C40.9499 46.9856 40.7533 47.4218 40.4397 47.7439C40.123 48.0595 39.6903 48.2499 39.2111 48.2499H17.1455C16.1884 48.2499 15.4067 47.4682 15.4067 46.5111C15.4067 46.0309 15.598 45.5973 15.9149 45.2804C16.2317 44.9636 16.6653 44.7723 17.1455 44.7723H19.3844H20.3792L19.7856 43.974C19.5704 43.6846 19.4385 43.3232 19.4385 42.9347Z" stroke="white"/>
<path d="M53.9378 23.7H59.4818C61.7058 23.7 63.3778 24.38 64.4978 25.74C65.6338 27.084 66.2018 29.092 66.2018 31.764C66.2018 33.844 65.9458 35.524 65.4338 36.804C64.9378 38.068 64.1458 39.004 63.0578 39.612C61.9858 40.204 60.5698 40.5 58.8098 40.5H53.9378V23.7ZM59.1938 38.364C60.7298 38.364 61.8418 37.844 62.5298 36.804C63.2338 35.764 63.5858 34.084 63.5858 31.764C63.5858 29.716 63.2498 28.22 62.5778 27.276C61.9058 26.316 60.8418 25.836 59.3858 25.836H56.5538V38.364H59.1938ZM72.1276 40.74C71.3436 40.74 70.6396 40.58 70.0156 40.26C69.4076 39.94 68.9276 39.5 68.5756 38.94C68.2396 38.364 68.0716 37.716 68.0716 36.996C68.0716 35.78 68.5356 34.852 69.4636 34.212C70.3916 33.556 71.7116 33.228 73.4236 33.228H75.6796V32.628C75.6796 31.828 75.4636 31.212 75.0316 30.78C74.5996 30.348 73.9676 30.132 73.1356 30.132C72.4156 30.132 71.7436 30.276 71.1196 30.564C70.4956 30.836 69.9836 31.236 69.5836 31.764L68.4556 30.348C69.0316 29.676 69.7276 29.164 70.5436 28.812C71.3756 28.444 72.2716 28.26 73.2316 28.26C74.7676 28.26 75.9596 28.636 76.8076 29.388C77.6556 30.124 78.0796 31.172 78.0796 32.532V38.1C78.0796 38.82 78.1756 39.62 78.3676 40.5H76.2796C76.1196 40.116 76.0076 39.58 75.9436 38.892H75.8956C74.9836 40.124 73.7276 40.74 72.1276 40.74ZM72.5836 38.892C73.4476 38.892 74.1756 38.66 74.7676 38.196C75.3756 37.716 75.6796 37.14 75.6796 36.468V34.884H73.3276C72.3836 34.884 71.6556 35.068 71.1436 35.436C70.6476 35.788 70.3996 36.308 70.3996 36.996C70.3996 37.588 70.5916 38.052 70.9756 38.388C71.3756 38.724 71.9116 38.892 72.5836 38.892ZM82.6769 26.652C82.1809 26.652 81.7889 26.516 81.5009 26.244C81.2129 25.972 81.0689 25.604 81.0689 25.14C81.0689 24.676 81.2129 24.308 81.5009 24.036C81.7889 23.764 82.1809 23.628 82.6769 23.628C83.1729 23.628 83.5649 23.764 83.8529 24.036C84.1569 24.308 84.3089 24.676 84.3089 25.14C84.3089 25.604 84.1569 25.972 83.8529 26.244C83.5649 26.516 83.1729 26.652 82.6769 26.652ZM81.5009 28.5H83.8769V40.5H81.5009V28.5ZM90.0667 40.74C89.1547 40.74 88.4667 40.484 88.0027 39.972C87.5387 39.444 87.3067 38.668 87.3067 37.644V22.692H89.6827V37.644C89.6827 38.14 89.7707 38.492 89.9467 38.7C90.1387 38.908 90.4427 39.012 90.8587 39.012C91.1947 39.012 91.6107 38.908 92.1067 38.7L92.4667 40.068C91.8427 40.516 91.0427 40.74 90.0667 40.74ZM103.211 28.5L98.7708 40.836C97.6988 43.796 95.9868 45.276 93.6348 45.276C93.1868 45.276 92.6748 45.204 92.0988 45.06V43.212C92.4348 43.34 92.8348 43.404 93.2988 43.404C94.0828 43.404 94.7468 43.124 95.2908 42.564C95.8348 42.004 96.3548 41.076 96.8508 39.78L92.3868 28.5H94.9308L97.9548 37.212L100.643 28.5H103.211ZM117.438 40.74C115.934 40.74 114.622 40.388 113.502 39.684C112.398 38.98 111.542 37.98 110.934 36.684C110.326 35.388 110.022 33.86 110.022 32.1C110.022 30.34 110.326 28.812 110.934 27.516C111.542 26.22 112.406 25.22 113.526 24.516C114.662 23.812 115.99 23.46 117.51 23.46C118.742 23.46 119.838 23.7 120.798 24.18C121.758 24.66 122.462 25.332 122.91 26.196L121.422 27.588C120.558 26.26 119.27 25.596 117.558 25.596C115.99 25.596 114.782 26.164 113.934 27.3C113.086 28.42 112.662 30.02 112.662 32.1C112.662 34.164 113.078 35.764 113.91 36.9C114.742 38.036 115.918 38.604 117.438 38.604C118.366 38.604 119.158 38.444 119.814 38.124C120.47 37.788 121.006 37.284 121.422 36.612L122.91 38.004C122.446 38.868 121.734 39.54 120.774 40.02C119.83 40.5 118.718 40.74 117.438 40.74ZM128.495 40.74C127.711 40.74 127.007 40.58 126.383 40.26C125.775 39.94 125.295 39.5 124.943 38.94C124.607 38.364 124.439 37.716 124.439 36.996C124.439 35.78 124.903 34.852 125.831 34.212C126.759 33.556 128.079 33.228 129.791 33.228H132.047V32.628C132.047 31.828 131.831 31.212 131.399 30.78C130.967 30.348 130.335 30.132 129.503 30.132C128.783 30.132 128.111 30.276 127.487 30.564C126.863 30.836 126.351 31.236 125.951 31.764L124.823 30.348C125.399 29.676 126.095 29.164 126.911 28.812C127.743 28.444 128.639 28.26 129.599 28.26C131.135 28.26 132.327 28.636 133.175 29.388C134.023 30.124 134.447 31.172 134.447 32.532V38.1C134.447 38.82 134.543 39.62 134.735 40.5H132.647C132.487 40.116 132.375 39.58 132.311 38.892H132.263C131.351 40.124 130.095 40.74 128.495 40.74ZM128.951 38.892C129.815 38.892 130.543 38.66 131.135 38.196C131.743 37.716 132.047 37.14 132.047 36.468V34.884H129.695C128.751 34.884 128.023 35.068 127.511 35.436C127.015 35.788 126.767 36.308 126.767 36.996C126.767 37.588 126.959 38.052 127.343 38.388C127.743 38.724 128.279 38.892 128.951 38.892ZM137.508 31.428C137.508 30.068 137.484 29.092 137.436 28.5H139.668C139.732 29.14 139.764 29.844 139.764 30.612V30.852H139.836C140.156 30.036 140.66 29.404 141.348 28.956C142.052 28.492 142.876 28.26 143.82 28.26C144.076 28.26 144.308 28.284 144.516 28.332V30.252C144.404 30.22 144.156 30.204 143.772 30.204C143.068 30.204 142.412 30.412 141.804 30.828C141.212 31.228 140.74 31.78 140.388 32.484C140.052 33.172 139.884 33.932 139.884 34.764V40.5H137.508V31.428ZM150.593 40.74C149.025 40.74 147.793 40.164 146.897 39.012C146.001 37.86 145.553 36.284 145.553 34.284C145.553 33.068 145.761 32.012 146.177 31.116C146.593 30.204 147.185 29.5 147.953 29.004C148.721 28.508 149.617 28.26 150.641 28.26C152.081 28.26 153.233 28.836 154.097 29.988H154.145V22.692H156.521V37.428C156.521 38.964 156.545 39.988 156.593 40.5H154.385C154.353 40.148 154.337 39.548 154.337 38.7H154.289C153.921 39.308 153.401 39.804 152.729 40.188C152.057 40.556 151.345 40.74 150.593 40.74ZM150.977 38.868C151.937 38.868 152.705 38.588 153.281 38.028C153.857 37.452 154.145 36.676 154.145 35.7V33.42C154.145 32.428 153.849 31.62 153.257 30.996C152.681 30.372 151.921 30.06 150.977 30.06C150.017 30.06 149.265 30.436 148.721 31.188C148.193 31.924 147.929 32.972 147.929 34.332C147.929 35.756 148.193 36.868 148.721 37.668C149.265 38.468 150.017 38.868 150.977 38.868Z" fill="#00FFF6"/>
<defs>
<filter id="filter0_f_571_14559" x="9" y="7.25" width="38.3564" height="45.5" filterUnits="userSpaceOnUse" color-interpolation-filters="sRGB">
<feFlood flood-opacity="0" result="BackgroundImageFix"/>
<feBlend mode="normal" in="SourceGraphic" in2="BackgroundImageFix" result="shape"/>
<feGaussianBlur stdDeviation="2" result="effect1_foregroundBlur_571_14559"/>
</filter>
<clipPath id="clip0_571_14559">
<rect width="40" height="40" fill="white" transform="translate(8 10)"/>
</clipPath>
</defs>
</svg>
