<svg width="12" height="13" viewBox="0 0 12 13" fill="none" xmlns="http://www.w3.org/2000/svg">
<g clip-path="url(#clip0_422_8687)">
<path d="M10.6667 2.16602H1.33333C0.979711 2.16602 0.640573 2.30649 0.390524 2.55654C0.140476 2.80659 0 3.14573 0 3.49935L0 9.49935C0 9.85297 0.140476 10.1921 0.390524 10.4422C0.640573 10.6922 0.979711 10.8327 1.33333 10.8327H10.6667C11.0203 10.8327 11.3594 10.6922 11.6095 10.4422C11.8595 10.1921 12 9.85297 12 9.49935V3.49935C12 3.14573 11.8595 2.80659 11.6095 2.55654C11.3594 2.30649 11.0203 2.16602 10.6667 2.16602Z" fill="#DA251D"/>
<path d="M6.58436 5.84521L6.00002 4.04688L5.41569 5.84521H3.52502L5.05469 6.95621L4.47036 8.75454L6.00002 7.64321L7.52969 8.75454L6.94536 6.95621L8.47502 5.84521H6.58436Z" fill="#FFFF00"/>
</g>
<defs>
<clipPath id="clip0_422_8687">
<rect width="12" height="12" fill="white" transform="translate(0 0.5)"/>
</clipPath>
</defs>
</svg>
