<svg width="20" height="21" viewBox="0 0 20 21" fill="none" xmlns="http://www.w3.org/2000/svg">
<path d="M5.5 10.416L8.5 13.416L14.5 7.41602M5.8 19.416H14.2C15.8802 19.416 16.7202 19.416 17.362 19.089C17.9265 18.8014 18.3854 18.3425 18.673 17.778C19 17.1363 19 16.2962 19 14.616V6.21602C19 4.53586 19 3.69578 18.673 3.05404C18.3854 2.48956 17.9265 2.03062 17.362 1.743C16.7202 1.41602 15.8802 1.41602 14.2 1.41602H5.8C4.11984 1.41602 3.27976 1.41602 2.63803 1.743C2.07354 2.03062 1.6146 2.48956 1.32698 3.05404C1 3.69578 1 4.53586 1 6.21602V14.616C1 16.2962 1 17.1363 1.32698 17.778C1.6146 18.3425 2.07354 18.8014 2.63803 19.089C3.27976 19.416 4.11984 19.416 5.8 19.416Z" stroke="white" stroke-width="2" stroke-linecap="round" stroke-linejoin="round"/>
</svg>
