<svg width="40" height="24" viewBox="0 0 40 24" fill="none" xmlns="http://www.w3.org/2000/svg">
<rect width="40" height="24" rx="12" fill="#FF2C52"/>
<path d="M9.20525 8.6H14.4853V9.668H10.5133V12.38H14.2213V13.448H10.5133V17H9.20525V8.6ZM15.7287 12.464C15.7287 11.784 15.7167 11.296 15.6927 11H16.8087C16.8407 11.32 16.8567 11.672 16.8567 12.056V12.176H16.8927C17.0527 11.768 17.3047 11.452 17.6487 11.228C18.0007 10.996 18.4127 10.88 18.8847 10.88C19.0127 10.88 19.1287 10.892 19.2327 10.916V11.876C19.1767 11.86 19.0527 11.852 18.8607 11.852C18.5087 11.852 18.1807 11.956 17.8767 12.164C17.5807 12.364 17.3447 12.64 17.1687 12.992C17.0007 13.336 16.9167 13.716 16.9167 14.132V17H15.7287V12.464ZM25.2712 14.456H20.9992C21.0632 15 21.2352 15.412 21.5152 15.692C21.8032 15.972 22.1952 16.112 22.6912 16.112C23.3952 16.112 23.9632 15.836 24.3952 15.284L25.0552 15.92C24.8232 16.296 24.4912 16.592 24.0592 16.808C23.6272 17.016 23.1512 17.12 22.6312 17.12C21.7352 17.12 21.0352 16.848 20.5312 16.304C20.0352 15.752 19.7872 14.988 19.7872 14.012C19.7872 13.036 20.0392 12.272 20.5432 11.72C21.0472 11.16 21.7392 10.88 22.6192 10.88C23.4512 10.88 24.0992 11.156 24.5632 11.708C25.0352 12.252 25.2712 13.016 25.2712 14V14.456ZM24.1432 13.52C24.1432 13 24.0032 12.592 23.7232 12.296C23.4432 12 23.0592 11.852 22.5712 11.852C22.1152 11.852 21.7512 12.004 21.4792 12.308C21.2072 12.612 21.0432 13.044 20.9872 13.604H24.1432V13.52ZM31.5876 14.456H27.3156C27.3796 15 27.5516 15.412 27.8316 15.692C28.1196 15.972 28.5116 16.112 29.0076 16.112C29.7116 16.112 30.2796 15.836 30.7116 15.284L31.3716 15.92C31.1396 16.296 30.8076 16.592 30.3756 16.808C29.9436 17.016 29.4676 17.12 28.9476 17.12C28.0516 17.12 27.3516 16.848 26.8476 16.304C26.3516 15.752 26.1036 14.988 26.1036 14.012C26.1036 13.036 26.3556 12.272 26.8596 11.72C27.3636 11.16 28.0556 10.88 28.9356 10.88C29.7676 10.88 30.4156 11.156 30.8796 11.708C31.3516 12.252 31.5876 13.016 31.5876 14V14.456ZM30.4596 13.52C30.4596 13 30.3196 12.592 30.0396 12.296C29.7596 12 29.3756 11.852 28.8876 11.852C28.4316 11.852 28.0676 12.004 27.7956 12.308C27.5236 12.612 27.3596 13.044 27.3036 13.604H30.4596V13.52Z" fill="white"/>
</svg>
