<svg width="12" height="13" viewBox="0 0 12 13" fill="none" xmlns="http://www.w3.org/2000/svg">
<g clip-path="url(#clip0_422_8691)">
<path d="M0 3.51902V4.83268H1.876L0 3.51902ZM1.55467 10.8327H4.33333V8.88702L1.55467 10.8327ZM7.66667 8.88735V10.8327H10.445L7.66667 8.88735ZM0 8.16602V9.47968L1.87667 8.16602H0ZM10.4457 2.16602H7.66667V4.11168L10.4457 2.16602ZM12 9.48001V8.16602H10.123L12 9.48001ZM12 4.83268V3.51902L10.1237 4.83268H12ZM4.33333 2.16602H1.55467L4.33333 4.11168V2.16602Z" fill="#00247D"/>
<path d="M8.38004 8.16675L11.6174 10.4337C11.7755 10.2709 11.8891 10.0701 11.9474 9.85075L9.54237 8.16675H8.38004ZM4.33337 8.16675H3.6197L0.382702 10.4334C0.556368 10.6101 0.779035 10.7364 1.0287 10.7951L4.33337 8.48108V8.16675ZM7.6667 4.83341H8.38037L11.6174 2.56674C11.4407 2.3875 11.2168 2.26209 10.9717 2.20508L7.6667 4.51908V4.83341ZM3.6197 4.83341L0.382702 2.56674C0.224686 2.72974 0.110973 2.93043 0.0523682 3.14974L2.45737 4.83341H3.6197Z" fill="#CF1B2B"/>
<path d="M12 7.49935H7V10.8327H7.66667V8.88735L10.445 10.8327H10.6667C10.8438 10.8327 11.0191 10.7974 11.1823 10.7287C11.3456 10.6601 11.4935 10.5596 11.6173 10.433L8.38 8.16602H9.54233L11.9473 9.85002C11.9783 9.73768 12 9.62135 12 9.49935V9.48001L10.123 8.16602H12V7.49935ZM0 7.49935V8.16602H1.87667L0 9.47968V9.49935C0 9.86302 0.146333 10.192 0.382667 10.4327L3.61967 8.16602H4.33333V8.48035L1.02867 10.794C1.12667 10.8173 1.228 10.8327 1.33333 10.8327H1.55467L4.33333 8.88702V10.8327H5V7.49935H0ZM12 3.49935C12.0002 3.15001 11.8627 2.81467 11.6173 2.56602L8.38033 4.83268H7.66667V4.51835L10.9717 2.20435C10.8718 2.17986 10.7695 2.16699 10.6667 2.16602H10.4457L7.66667 4.11168V2.16602H7V5.49935H12V4.83268H10.1237L12 3.51902V3.49935ZM4.33333 2.16602V4.11168L1.55467 2.16602H1.33333C1.15621 2.16594 0.980855 2.20129 0.817593 2.26998C0.65433 2.33867 0.506455 2.43933 0.382667 2.56602L3.61967 4.83268H2.45733L0.0523333 3.14902C0.0192601 3.26292 0.0016578 3.38075 0 3.49935L0 3.51902L1.876 4.83268H0V5.49935H5V2.16602H4.33333Z" fill="#EEEEEE"/>
<path d="M7 5.49935V2.16602H5V5.49935H0V7.49935H5V10.8327H7V7.49935H12V5.49935H7Z" fill="#CF1B2B"/>
</g>
<defs>
<clipPath id="clip0_422_8691">
<rect width="12" height="12" fill="white" transform="translate(0 0.5)"/>
</clipPath>
</defs>
</svg>
