<svg width="49" height="48" viewBox="0 0 49 48" fill="none" xmlns="http://www.w3.org/2000/svg">
<g filter="url(#filter0_f_687_16781)">
<path d="M24.0635 32C31.5193 32 37.5635 25.9558 37.5635 18.5C37.5635 11.0442 31.5193 5 24.0635 5C16.6076 5 10.5635 11.0442 10.5635 18.5C10.5635 25.9558 16.6076 32 24.0635 32Z" stroke="#FF2C52" stroke-width="2" stroke-linecap="round" stroke-linejoin="round"/>
</g>
<g filter="url(#filter1_f_687_16781)">
<mask id="path-2-inside-1_687_16781" fill="white">
<path d="M4 43.3044C5.88316 39.6019 8.75413 36.4928 12.2951 34.3211C15.8361 32.1495 19.9089 31 24.0628 31C28.2166 31 32.2895 32.1494 35.8304 34.3211C39.3714 36.4927 42.2424 39.6019 44.1256 43.3043"/>
</mask>
<path d="M2.21734 42.3977C1.71658 43.3822 2.10876 44.5863 3.0933 45.0871C4.07783 45.5878 5.28191 45.1956 5.78266 44.2111L2.21734 42.3977ZM42.3429 44.211C42.8437 45.1956 44.0477 45.5877 45.0323 45.087C46.0168 44.5862 46.409 43.3821 45.9082 42.3976L42.3429 44.211ZM5.78266 44.2111C7.49849 40.8376 10.1144 38.0047 13.3407 36.026L11.2495 32.6162C7.39389 34.9808 4.26782 38.3662 2.21734 42.3977L5.78266 44.2111ZM13.3407 36.026C16.567 34.0473 20.278 33 24.0628 33L24.0627 29C19.5398 29 15.1051 30.2516 11.2495 32.6162L13.3407 36.026ZM24.0628 33C27.8475 33 31.5585 34.0473 34.7848 36.026L36.876 32.6162C33.0204 30.2516 28.5857 29 24.0627 29L24.0628 33ZM34.7848 36.026C38.0112 38.0047 40.627 40.8375 42.3429 44.211L45.9082 42.3976C43.8577 38.3662 40.7316 34.9808 36.876 32.6162L34.7848 36.026Z" fill="#FF2C52" mask="url(#path-2-inside-1_687_16781)"/>
</g>
<path d="M24.0635 31.5C31.2432 31.5 37.0635 25.6797 37.0635 18.5C37.0635 11.3203 31.2432 5.5 24.0635 5.5C16.8838 5.5 11.0635 11.3203 11.0635 18.5C11.0635 25.6797 16.8838 31.5 24.0635 31.5Z" stroke="white" stroke-linecap="round" stroke-linejoin="round"/>
<mask id="path-5-inside-2_687_16781" fill="white">
<path d="M4 43.3044C5.88316 39.6019 8.75413 36.4928 12.2951 34.3211C15.8361 32.1495 19.9089 31 24.0628 31C28.2166 31 32.2895 32.1494 35.8304 34.3211C39.3714 36.4927 42.2424 39.6019 44.1256 43.3043"/>
</mask>
<path d="M3.10867 42.851C2.85829 43.3433 3.05438 43.9453 3.54665 44.1957C4.03892 44.4461 4.64095 44.25 4.89133 43.7577L3.10867 42.851ZM43.2342 43.7577C43.4846 44.2499 44.0866 44.446 44.5789 44.1956C45.0712 43.9453 45.2673 43.3432 45.0169 42.851L43.2342 43.7577ZM4.89133 43.7577C6.69083 40.2198 9.43425 37.2487 12.8179 35.1736L11.7723 33.4687C8.07401 35.7368 5.07549 38.9841 3.10867 42.851L4.89133 43.7577ZM12.8179 35.1736C16.2015 33.0984 20.0934 32 24.0628 32L24.0627 30C19.7243 30 15.4706 31.2005 11.7723 33.4687L12.8179 35.1736ZM24.0628 32C28.0321 32 31.924 33.0984 35.3076 35.1735L36.3532 33.4686C32.6549 31.2005 28.4011 30 24.0627 30L24.0628 32ZM35.3076 35.1735C38.6913 37.2487 41.4347 40.2197 43.2342 43.7577L45.0169 42.851C43.05 38.984 40.0515 35.7367 36.3532 33.4686L35.3076 35.1735Z" fill="white" mask="url(#path-5-inside-2_687_16781)"/>
<defs>
<filter id="filter0_f_687_16781" x="5.56348" y="0" width="37" height="37" filterUnits="userSpaceOnUse" color-interpolation-filters="sRGB">
<feFlood flood-opacity="0" result="BackgroundImageFix"/>
<feBlend mode="normal" in="SourceGraphic" in2="BackgroundImageFix" result="shape"/>
<feGaussianBlur stdDeviation="2" result="effect1_foregroundBlur_687_16781"/>
</filter>
<filter id="filter1_f_687_16781" x="0" y="27" width="48.1256" height="20.3047" filterUnits="userSpaceOnUse" color-interpolation-filters="sRGB">
<feFlood flood-opacity="0" result="BackgroundImageFix"/>
<feBlend mode="normal" in="SourceGraphic" in2="BackgroundImageFix" result="shape"/>
<feGaussianBlur stdDeviation="2" result="effect1_foregroundBlur_687_16781"/>
</filter>
</defs>
</svg>
