<svg width="24" height="25" viewBox="0 0 24 25" fill="none" xmlns="http://www.w3.org/2000/svg">
<path d="M7.5 12.416L10.5 15.416L16.5 9.41602M7.8 21.416H16.2C17.8802 21.416 18.7202 21.416 19.362 21.089C19.9265 20.8014 20.3854 20.3425 20.673 19.778C21 19.1363 21 18.2962 21 16.616V8.21602C21 6.53586 21 5.69578 20.673 5.05404C20.3854 4.48956 19.9265 4.03062 19.362 3.743C18.7202 3.41602 17.8802 3.41602 16.2 3.41602H7.8C6.11984 3.41602 5.27976 3.41602 4.63803 3.743C4.07354 4.03062 3.6146 4.48956 3.32698 5.05404C3 5.69578 3 6.53586 3 8.21602V16.616C3 18.2962 3 19.1363 3.32698 19.778C3.6146 20.3425 4.07354 20.8014 4.63803 21.089C5.27976 21.416 6.11984 21.416 7.8 21.416Z" stroke="white" stroke-width="2" stroke-linecap="round" stroke-linejoin="round"/>
</svg>
