<svg width="94" height="21" viewBox="0 0 94 21" fill="none" xmlns="http://www.w3.org/2000/svg">
<path d="M8.932 10.516C8.932 11.832 8.66133 12.9193 8.12 13.778C7.57867 14.6273 6.818 15.1733 5.838 15.416C6.60333 15.7053 7.56467 15.8967 8.722 15.99L8.47 17.054C7.66733 16.9793 6.846 16.7927 6.006 16.494C5.17533 16.2047 4.47067 15.8687 3.892 15.486C2.81867 15.2993 1.97867 14.772 1.372 13.904C0.765333 13.036 0.462 11.9067 0.462 10.516C0.462 9.48002 0.63 8.58402 0.966 7.82801C1.31133 7.07202 1.80133 6.49335 2.436 6.09202C3.08 5.68135 3.836 5.47602 4.704 5.47602C5.572 5.47602 6.32333 5.68135 6.958 6.09202C7.59267 6.49335 8.078 7.07202 8.414 7.82801C8.75933 8.58402 8.932 9.48002 8.932 10.516ZM1.988 10.516C1.988 11.2907 2.09533 11.9673 2.31 12.546C2.534 13.1247 2.85133 13.568 3.262 13.876C3.67267 14.184 4.15333 14.338 4.704 14.338C5.53467 14.338 6.19267 13.9973 6.678 13.316C7.16333 12.6253 7.406 11.692 7.406 10.516C7.406 9.33068 7.16333 8.39735 6.678 7.71602C6.19267 7.03468 5.53467 6.69402 4.704 6.69402C3.87333 6.69402 3.21067 7.03935 2.716 7.73002C2.23067 8.41135 1.988 9.34002 1.988 10.516ZM12.6406 15.556C11.8379 15.556 11.2266 15.2947 10.8066 14.772C10.3959 14.24 10.1906 13.4607 10.1906 12.434V8.41602H11.5766V12.448C11.5766 13.12 11.6932 13.6193 11.9266 13.946C12.1599 14.2727 12.5146 14.436 12.9906 14.436C13.5506 14.436 14.0126 14.226 14.3766 13.806C14.7499 13.386 14.9366 12.854 14.9366 12.21V8.41602H16.3226V13.834C16.3226 14.338 16.3646 14.8653 16.4486 15.416H15.1466C15.0719 15.0147 15.0299 14.5993 15.0206 14.17H14.9786C14.7919 14.5993 14.4839 14.94 14.0546 15.192C13.6346 15.4347 13.1632 15.556 12.6406 15.556ZM24.0462 12.448H19.0622C19.1369 13.0827 19.3375 13.5633 19.6642 13.89C20.0002 14.2167 20.4575 14.38 21.0362 14.38C21.8575 14.38 22.5202 14.058 23.0242 13.414L23.7942 14.156C23.5235 14.5947 23.1362 14.94 22.6322 15.192C22.1282 15.4347 21.5729 15.556 20.9662 15.556C19.9209 15.556 19.1042 15.2387 18.5162 14.604C17.9375 13.96 17.6482 13.0687 17.6482 11.93C17.6482 10.7913 17.9422 9.90002 18.5302 9.25602C19.1182 8.60268 19.9255 8.27601 20.9522 8.27601C21.9229 8.27601 22.6789 8.59802 23.2202 9.24202C23.7709 9.87668 24.0462 10.768 24.0462 11.916V12.448ZM22.7302 11.356C22.7302 10.7493 22.5669 10.2733 22.2402 9.92802C21.9135 9.58268 21.4655 9.41002 20.8962 9.41002C20.3642 9.41002 19.9395 9.58735 19.6222 9.94202C19.3049 10.2967 19.1135 10.8007 19.0482 11.454H22.7302V11.356ZM20.4762 5.56001H21.3722L23.0382 7.66002H21.8342L20.9242 6.47001L20.0142 7.66002H18.8102L20.4762 5.56001ZM25.3113 10.208C25.3113 9.34002 25.2927 8.74268 25.2553 8.41602H26.5433C26.59 8.76135 26.6133 9.17202 26.6133 9.64802H26.6553C26.842 9.22802 27.1453 8.89668 27.5653 8.65402C27.9947 8.40202 28.4707 8.27601 28.9933 8.27601C30.636 8.27601 31.4573 9.34002 31.4573 11.468V15.416H30.0713V11.454C30.0713 10.754 29.9547 10.236 29.7213 9.90002C29.488 9.56402 29.1287 9.39602 28.6433 9.39602C28.074 9.39602 27.6073 9.60135 27.2433 10.012C26.8793 10.4227 26.6973 10.9453 26.6973 11.58V15.416H25.3113V10.208ZM36.4406 10.208C36.4406 9.49868 36.4172 8.90135 36.3706 8.41602H37.6026C37.6399 8.76135 37.6586 9.17202 37.6586 9.64802H37.7006C37.8779 9.22802 38.1626 8.89668 38.5546 8.65402C38.9559 8.40202 39.4086 8.27601 39.9126 8.27601C40.4072 8.27601 40.8319 8.39735 41.1866 8.64002C41.5412 8.87335 41.7792 9.20468 41.9006 9.63402C42.0966 9.21402 42.3906 8.88268 42.7826 8.64002C43.1839 8.39735 43.6319 8.27601 44.1266 8.27601C44.9012 8.27601 45.5032 8.52802 45.9326 9.03202C46.3712 9.52668 46.5906 10.2127 46.5906 11.09V15.416H45.2046V11.216C45.2046 10.6373 45.0786 10.1893 44.8266 9.87202C44.5839 9.55468 44.2339 9.39602 43.7766 9.39602C43.3099 9.39602 42.9272 9.56868 42.6286 9.91402C42.3392 10.25 42.1946 10.6887 42.1946 11.23V15.416H40.8226V11.272C40.8226 10.0213 40.3652 9.39602 39.4506 9.39602C39.1519 9.39602 38.8766 9.48002 38.6246 9.64802C38.3819 9.81602 38.1859 10.0447 38.0366 10.334C37.8872 10.6233 37.8126 10.936 37.8126 11.272V15.416H36.4406V10.208ZM50.2981 15.556C49.8407 15.556 49.4301 15.4627 49.0661 15.276C48.7114 15.0893 48.4314 14.8327 48.2261 14.506C48.0301 14.17 47.9321 13.792 47.9321 13.372C47.9321 12.6627 48.2027 12.1213 48.7441 11.748C49.2854 11.3653 50.0554 11.174 51.0541 11.174H52.3701V10.824C52.3701 10.3573 52.2441 9.99802 51.9921 9.74602C51.7401 9.49402 51.3714 9.36802 50.8861 9.36802C50.4661 9.36802 50.0741 9.45202 49.7101 9.62002C49.3461 9.77868 49.0474 10.012 48.8141 10.32L48.1561 9.49402C48.4921 9.10202 48.8981 8.80335 49.3741 8.59802C49.8594 8.38335 50.3821 8.27601 50.9421 8.27601C51.8381 8.27601 52.5334 8.49535 53.0281 8.93402C53.5227 9.36335 53.7701 9.97468 53.7701 10.768V14.016C53.7701 14.436 53.8261 14.9027 53.9381 15.416H52.7201C52.6267 15.192 52.5614 14.8793 52.5241 14.478H52.4961C51.9641 15.1967 51.2314 15.556 50.2981 15.556ZM50.5641 14.478C51.0681 14.478 51.4927 14.3427 51.8381 14.072C52.1927 13.792 52.3701 13.456 52.3701 13.064V12.14H50.9981C50.4474 12.14 50.0227 12.2473 49.7241 12.462C49.4347 12.6673 49.2901 12.9707 49.2901 13.372C49.2901 13.7173 49.4021 13.988 49.6261 14.184C49.8594 14.38 50.1721 14.478 50.5641 14.478ZM51.0261 17.992C50.7927 17.992 50.6014 17.9173 50.4521 17.768C50.3027 17.628 50.2281 17.4413 50.2281 17.208C50.2281 16.9747 50.3027 16.7833 50.4521 16.634C50.6014 16.494 50.7927 16.424 51.0261 16.424C51.2594 16.424 51.4507 16.494 51.6001 16.634C51.7494 16.7833 51.8241 16.9747 51.8241 17.208C51.8241 17.4413 51.7494 17.628 51.6001 17.768C51.4507 17.9173 51.2594 17.992 51.0261 17.992ZM50.5501 5.56001H51.4461L53.1121 7.66002H51.9081L50.9981 6.47001L50.0881 7.66002H48.8841L50.5501 5.56001ZM58.1738 15.556C57.5205 15.556 57.0072 15.36 56.6338 14.968C56.2698 14.5667 56.0878 14.016 56.0878 13.316V9.48002H54.8278V8.41602H56.0878V6.56802L57.4178 6.17602H57.4738V8.41602H59.4758V9.48002H57.4738V13.148C57.4738 13.6053 57.5625 13.9413 57.7398 14.156C57.9265 14.3707 58.2065 14.478 58.5798 14.478C58.9532 14.478 59.2845 14.422 59.5738 14.31L59.6578 15.304C59.3125 15.472 58.8178 15.556 58.1738 15.556ZM68.8959 15.416L66.6699 11.986L65.7039 12.938V15.416H64.3039V5.02802H65.7039V11.272L68.5599 8.41602H70.2539L67.6079 11.048L70.4639 15.416H68.8959ZM71.3312 5.02802H72.7172V9.42402C72.9225 9.06935 73.2305 8.78935 73.6412 8.58402C74.0519 8.37868 74.5045 8.27601 74.9992 8.27601C75.8112 8.27601 76.4459 8.54668 76.9032 9.08802C77.3605 9.62935 77.5892 10.3807 77.5892 11.342V15.416H76.2032V11.384C76.2032 10.7213 76.0725 10.2127 75.8112 9.85802C75.5592 9.50335 75.1905 9.32602 74.7052 9.32602C74.1265 9.32602 73.6505 9.53602 73.2772 9.95602C72.9039 10.376 72.7172 10.922 72.7172 11.594V15.416H71.3312V5.02802ZM81.2649 15.556C80.8075 15.556 80.3969 15.4627 80.0329 15.276C79.6782 15.0893 79.3982 14.8327 79.1929 14.506C78.9969 14.17 78.8989 13.792 78.8989 13.372C78.8989 12.6627 79.1695 12.1213 79.7109 11.748C80.2522 11.3653 81.0222 11.174 82.0209 11.174H83.3369V10.824C83.3369 10.3573 83.2109 9.99802 82.9589 9.74602C82.7069 9.49402 82.3382 9.36802 81.8529 9.36802C81.4329 9.36802 81.0409 9.45202 80.6769 9.62002C80.3129 9.77868 80.0142 10.012 79.7809 10.32L79.1229 9.49402C79.4589 9.10202 79.8649 8.80335 80.3409 8.59802C80.8262 8.38335 81.3489 8.27601 81.9089 8.27601C82.8049 8.27601 83.5002 8.49535 83.9949 8.93402C84.4895 9.36335 84.7369 9.97468 84.7369 10.768V14.016C84.7369 14.436 84.7929 14.9027 84.9049 15.416H83.6869C83.5935 15.192 83.5282 14.8793 83.4909 14.478H83.4629C82.9309 15.1967 82.1982 15.556 81.2649 15.556ZM81.5309 14.478C82.0349 14.478 82.4595 14.3427 82.8049 14.072C83.1595 13.792 83.3369 13.456 83.3369 13.064V12.14H81.9649C81.4142 12.14 80.9895 12.2473 80.6909 12.462C80.4015 12.6673 80.2569 12.9707 80.2569 13.372C80.2569 13.7173 80.3689 13.988 80.5929 14.184C80.8262 14.38 81.1389 14.478 81.5309 14.478ZM83.7149 6.06402C83.7149 5.84935 83.7569 5.68135 83.8409 5.56001C83.9342 5.42935 84.0602 5.30335 84.2189 5.18202C84.3402 5.08868 84.4289 5.00935 84.4849 4.94402C84.5409 4.86935 84.5689 4.78068 84.5689 4.67802C84.5689 4.57535 84.5315 4.49601 84.4569 4.44002C84.3822 4.38402 84.2795 4.35602 84.1489 4.35602C84.0089 4.35602 83.8735 4.39335 83.7429 4.46801C83.6122 4.54268 83.5049 4.64535 83.4209 4.77601L82.9589 4.34202C83.0895 4.14602 83.2669 3.98735 83.4909 3.86601C83.7242 3.74468 83.9715 3.68401 84.2329 3.68401C84.5595 3.68401 84.8209 3.76801 85.0169 3.93601C85.2222 4.10401 85.3249 4.33735 85.3249 4.63602C85.3249 4.81335 85.2875 4.95802 85.2129 5.07002C85.1382 5.18201 85.0262 5.29868 84.8769 5.42001C84.7369 5.55068 84.6342 5.65801 84.5689 5.74202C84.5129 5.82602 84.4802 5.93335 84.4709 6.06402H83.7149ZM81.5169 5.56001H82.3989L84.0789 7.66002H82.8609L81.9649 6.47001L81.0549 7.66002H79.8509L81.5169 5.56001ZM88.8886 15.556C88.086 15.556 87.4746 15.2947 87.0546 14.772C86.644 14.24 86.4386 13.4607 86.4386 12.434V8.41602H87.8246V12.448C87.8246 13.12 87.9413 13.6193 88.1746 13.946C88.408 14.2727 88.7626 14.436 89.2386 14.436C89.7986 14.436 90.2606 14.226 90.6246 13.806C90.998 13.386 91.1846 12.854 91.1846 12.21V8.41602H92.5706V13.834C92.5706 14.338 92.6126 14.8653 92.6966 15.416H91.3946C91.32 15.0147 91.278 14.5993 91.2686 14.17H91.2266C91.04 14.5993 90.732 14.94 90.3026 15.192C89.8826 15.4347 89.4113 15.556 88.8886 15.556Z" fill="white"/>
<line y1="20.166" x2="94" y2="20.166" stroke="white" stroke-width="0.5"/>
</svg>
