<svg width="114" height="25" viewBox="0 0 114 25" fill="none" xmlns="http://www.w3.org/2000/svg">
<path d="M7.5 12.416L10.5 15.416L16.5 9.41602M7.8 21.416H16.2C17.8802 21.416 18.7202 21.416 19.362 21.089C19.9265 20.8014 20.3854 20.3425 20.673 19.778C21 19.1363 21 18.2962 21 16.616V8.21602C21 6.53586 21 5.69578 20.673 5.05404C20.3854 4.48956 19.9265 4.03062 19.362 3.743C18.7202 3.41602 17.8802 3.41602 16.2 3.41602H7.8C6.11984 3.41602 5.27976 3.41602 4.63803 3.743C4.07354 4.03062 3.6146 4.48956 3.32698 5.05404C3 5.69578 3 6.53586 3 8.21602V16.616C3 18.2962 3 19.1363 3.32698 19.778C3.6146 20.3425 4.07354 20.8014 4.63803 21.089C5.27976 21.416 6.11984 21.416 7.8 21.416Z" stroke="white" stroke-width="2" stroke-linecap="round" stroke-linejoin="round"/>
<path d="M29.064 8.61601H30.59V17.17H35.294V18.416H29.064V8.61601ZM44.782 11.416V12.004C44.782 12.676 44.586 13.2687 44.194 13.782C43.802 14.286 43.298 14.636 42.682 14.832V16.834C42.682 17.338 42.724 17.8653 42.808 18.416H41.506C41.4313 18.0147 41.3893 17.5993 41.38 17.17H41.338C41.1513 17.5993 40.8433 17.94 40.414 18.192C39.994 18.4347 39.5226 18.556 39 18.556C38.1973 18.556 37.586 18.2947 37.166 17.772C36.7553 17.24 36.55 16.4607 36.55 15.434V11.416H37.936V15.448C37.936 16.12 38.0526 16.6193 38.286 16.946C38.5193 17.2727 38.874 17.436 39.35 17.436C39.91 17.436 40.372 17.226 40.736 16.806C41.1093 16.386 41.296 15.854 41.296 15.21V11.416H42.682V13.936C42.9993 13.6933 43.228 13.4227 43.368 13.124C43.508 12.8253 43.578 12.452 43.578 12.004V11.416H44.782ZM47.6269 18.556C46.8242 18.556 46.2129 18.2947 45.7929 17.772C45.3822 17.24 45.1769 16.4607 45.1769 15.434V11.416H46.5629V15.448C46.5629 16.12 46.6796 16.6193 46.9129 16.946C47.1462 17.2727 47.5009 17.436 47.9769 17.436C48.5369 17.436 48.9989 17.226 49.3629 16.806C49.7362 16.386 49.9229 15.854 49.9229 15.21V11.416H51.3089V16.834C51.3089 17.338 51.3509 17.8653 51.4349 18.416H50.1329C50.0582 18.0147 50.0162 17.5993 50.0069 17.17H49.9649C49.7782 17.5993 49.4702 17.94 49.0409 18.192C48.6209 18.4347 48.1496 18.556 47.6269 18.556ZM56.3058 13.208C56.3058 12.4987 56.2825 11.9013 56.2358 11.416H57.4678C57.5051 11.7613 57.5238 12.172 57.5238 12.648H57.5658C57.7431 12.228 58.0278 11.8967 58.4198 11.654C58.8211 11.402 59.2738 11.276 59.7778 11.276C60.2725 11.276 60.6971 11.3973 61.0518 11.64C61.4065 11.8733 61.6445 12.2047 61.7658 12.634C61.9618 12.214 62.2558 11.8827 62.6478 11.64C63.0491 11.3973 63.4971 11.276 63.9918 11.276C64.7665 11.276 65.3685 11.528 65.7978 12.032C66.2365 12.5267 66.4558 13.2127 66.4558 14.09V18.416H65.0698V14.216C65.0698 13.6373 64.9438 13.1893 64.6918 12.872C64.4491 12.5547 64.0991 12.396 63.6418 12.396C63.1751 12.396 62.7925 12.5687 62.4938 12.914C62.2045 13.25 62.0598 13.6887 62.0598 14.23V18.416H60.6878V14.272C60.6878 13.0213 60.2305 12.396 59.3158 12.396C59.0171 12.396 58.7418 12.48 58.4898 12.648C58.2471 12.816 58.0511 13.0447 57.9018 13.334C57.7525 13.6233 57.6778 13.936 57.6778 14.272V18.416H56.3058V13.208ZM70.1633 18.556C69.706 18.556 69.2953 18.4627 68.9313 18.276C68.5766 18.0893 68.2966 17.8327 68.0913 17.506C67.8953 17.17 67.7973 16.792 67.7973 16.372C67.7973 15.6627 68.068 15.1213 68.6093 14.748C69.1506 14.3653 69.9206 14.174 70.9193 14.174H72.2353V13.824C72.2353 13.3573 72.1093 12.998 71.8573 12.746C71.6053 12.494 71.2366 12.368 70.7513 12.368C70.3313 12.368 69.9393 12.452 69.5753 12.62C69.2113 12.7787 68.9126 13.012 68.6793 13.32L68.0213 12.494C68.3573 12.102 68.7633 11.8033 69.2393 11.598C69.7246 11.3833 70.2473 11.276 70.8073 11.276C71.7033 11.276 72.3986 11.4953 72.8933 11.934C73.388 12.3633 73.6353 12.9747 73.6353 13.768V17.016C73.6353 17.436 73.6913 17.9027 73.8033 18.416H72.5853C72.492 18.192 72.4266 17.8793 72.3893 17.478H72.3613C71.8293 18.1967 71.0966 18.556 70.1633 18.556ZM70.4293 17.478C70.9333 17.478 71.358 17.3427 71.7033 17.072C72.058 16.792 72.2353 16.456 72.2353 16.064V15.14H70.8633C70.3126 15.14 69.888 15.2473 69.5893 15.462C69.3 15.6673 69.1553 15.9707 69.1553 16.372C69.1553 16.7173 69.2673 16.988 69.4913 17.184C69.7246 17.38 70.0373 17.478 70.4293 17.478ZM70.8913 20.992C70.658 20.992 70.4666 20.9173 70.3173 20.768C70.168 20.628 70.0933 20.4413 70.0933 20.208C70.0933 19.9747 70.168 19.7833 70.3173 19.634C70.4666 19.494 70.658 19.424 70.8913 19.424C71.1246 19.424 71.316 19.494 71.4653 19.634C71.6146 19.7833 71.6893 19.9747 71.6893 20.208C71.6893 20.4413 71.6146 20.628 71.4653 20.768C71.316 20.9173 71.1246 20.992 70.8913 20.992ZM70.4153 8.56001H71.3113L72.9773 10.66H71.7733L70.8633 9.47001L69.9533 10.66H68.7493L70.4153 8.56001ZM78.0391 18.556C77.3857 18.556 76.8724 18.36 76.4991 17.968C76.1351 17.5667 75.9531 17.016 75.9531 16.316V12.48H74.6931V11.416H75.9531V9.56802L77.2831 9.17602H77.3391V11.416H79.3411V12.48H77.3391V16.148C77.3391 16.6053 77.4277 16.9413 77.6051 17.156C77.7917 17.3707 78.0717 17.478 78.4451 17.478C78.8184 17.478 79.1497 17.422 79.4391 17.31L79.5231 18.304C79.1777 18.472 78.6831 18.556 78.0391 18.556ZM88.7611 18.416L86.5351 14.986L85.5691 15.938V18.416H84.1691V8.02802H85.5691V14.272L88.4251 11.416H90.1191L87.4731 14.048L90.3291 18.416H88.7611ZM91.1964 8.02802H92.5824V12.424C92.7878 12.0693 93.0958 11.7893 93.5064 11.584C93.9171 11.3787 94.3698 11.276 94.8644 11.276C95.6764 11.276 96.3111 11.5467 96.7684 12.088C97.2258 12.6293 97.4544 13.3807 97.4544 14.342V18.416H96.0684V14.384C96.0684 13.7213 95.9378 13.2127 95.6764 12.858C95.4244 12.5033 95.0558 12.326 94.5704 12.326C93.9918 12.326 93.5158 12.536 93.1424 12.956C92.7691 13.376 92.5824 13.922 92.5824 14.594V18.416H91.1964V8.02802ZM101.13 18.556C100.673 18.556 100.262 18.4627 99.8981 18.276C99.5434 18.0893 99.2634 17.8327 99.0581 17.506C98.8621 17.17 98.7641 16.792 98.7641 16.372C98.7641 15.6627 99.0348 15.1213 99.5761 14.748C100.117 14.3653 100.887 14.174 101.886 14.174H103.202V13.824C103.202 13.3573 103.076 12.998 102.824 12.746C102.572 12.494 102.203 12.368 101.718 12.368C101.298 12.368 100.906 12.452 100.542 12.62C100.178 12.7787 99.8794 13.012 99.6461 13.32L98.9881 12.494C99.3241 12.102 99.7301 11.8033 100.206 11.598C100.691 11.3833 101.214 11.276 101.774 11.276C102.67 11.276 103.365 11.4953 103.86 11.934C104.355 12.3633 104.602 12.9747 104.602 13.768V17.016C104.602 17.436 104.658 17.9027 104.77 18.416H103.552C103.459 18.192 103.393 17.8793 103.356 17.478H103.328C102.796 18.1967 102.063 18.556 101.13 18.556ZM101.396 17.478C101.9 17.478 102.325 17.3427 102.67 17.072C103.025 16.792 103.202 16.456 103.202 16.064V15.14H101.83C101.279 15.14 100.855 15.2473 100.556 15.462C100.267 15.6673 100.122 15.9707 100.122 16.372C100.122 16.7173 100.234 16.988 100.458 17.184C100.691 17.38 101.004 17.478 101.396 17.478ZM103.58 9.06402C103.58 8.84935 103.622 8.68135 103.706 8.56001C103.799 8.42935 103.925 8.30335 104.084 8.18202C104.205 8.08868 104.294 8.00935 104.35 7.94402C104.406 7.86935 104.434 7.78068 104.434 7.67802C104.434 7.57535 104.397 7.49601 104.322 7.44002C104.247 7.38402 104.145 7.35602 104.014 7.35602C103.874 7.35602 103.739 7.39335 103.608 7.46801C103.477 7.54268 103.37 7.64535 103.286 7.77601L102.824 7.34202C102.955 7.14602 103.132 6.98735 103.356 6.86601C103.589 6.74468 103.837 6.68401 104.098 6.68401C104.425 6.68401 104.686 6.76801 104.882 6.93601C105.087 7.10401 105.19 7.33735 105.19 7.63602C105.19 7.81335 105.153 7.95802 105.078 8.07002C105.003 8.18201 104.891 8.29868 104.742 8.42001C104.602 8.55068 104.499 8.65801 104.434 8.74202C104.378 8.82602 104.345 8.93335 104.336 9.06402H103.58ZM101.382 8.56001H102.264L103.944 10.66H102.726L101.83 9.47001L100.92 10.66H99.7161L101.382 8.56001ZM108.754 18.556C107.951 18.556 107.34 18.2947 106.92 17.772C106.509 17.24 106.304 16.4607 106.304 15.434V11.416H107.69V15.448C107.69 16.12 107.807 16.6193 108.04 16.946C108.273 17.2727 108.628 17.436 109.104 17.436C109.664 17.436 110.126 17.226 110.49 16.806C110.863 16.386 111.05 15.854 111.05 15.21V11.416H112.436V16.834C112.436 17.338 112.478 17.8653 112.562 18.416H111.26C111.185 18.0147 111.143 17.5993 111.134 17.17H111.092C110.905 17.5993 110.597 17.94 110.168 18.192C109.748 18.4347 109.277 18.556 108.754 18.556Z" fill="white"/>
</svg>
