<svg width="160" height="160" viewBox="0 0 160 160" fill="none" xmlns="http://www.w3.org/2000/svg">
<g clip-path="url(#clip0_339_15161)">
<rect width="160" height="160" rx="8" fill="white"/>
<path d="M24.8889 17.7773C23.003 17.7773 21.1942 18.5265 19.8606 19.8601C18.527 21.1937 17.7778 23.0025 17.7778 24.8885V53.3329H53.3334V17.7773H24.8889ZM44.4445 44.444H26.6667V26.6662H44.4445V44.444Z" fill="black"/>
<path d="M17.7778 135.11C17.7778 136.996 18.527 138.805 19.8606 140.139C21.1942 141.472 23.003 142.222 24.8889 142.222H53.3334V106.666H17.7778V135.11ZM26.6667 115.555H44.4445V133.333H26.6667V115.555Z" fill="black"/>
<path d="M106.667 142.222H135.111C136.997 142.222 138.806 141.472 140.139 140.139C141.473 138.805 142.222 136.996 142.222 135.11V106.666H106.667V142.222ZM115.556 115.555H133.333V133.333H115.556V115.555Z" fill="black"/>
<path d="M135.111 17.7773H106.667V53.3329H142.222V24.8885C142.222 23.0025 141.473 21.1937 140.139 19.8601C138.806 18.5265 136.997 17.7773 135.111 17.7773ZM133.333 44.444H115.556V26.6662H133.333V44.444Z" fill="black"/>
<path d="M88.8889 44.4436V35.5547H71.1111V53.3325H80V44.4436H88.8889Z" fill="black"/>
<path d="M53.3334 53.334H62.2223V62.2229H53.3334V53.334Z" fill="black"/>
<path d="M62.2222 62.2227H79.9999V71.1115H62.2222V62.2227Z" fill="black"/>
<path d="M88.8888 26.6662V35.5551H97.7777V17.7773H62.2222V35.5551H71.1111V26.6662H88.8888Z" fill="black"/>
<path d="M17.7778 62.2227H26.6667V80.0004H17.7778V62.2227Z" fill="black"/>
<path d="M53.3334 71.1115V80.0004H44.4445V62.2227H35.5556V80.0004H26.6667V88.8893H17.7778V97.7782H35.5556V88.8893H44.4445V97.7782H53.3334V88.8893H62.2223V71.1115H53.3334Z" fill="black"/>
<path d="M88.8889 71.112H97.7778V80.0009H106.667V71.112H115.556V62.2231H97.7778V44.4453H88.8889V53.3342H80V62.2231H88.8889V71.112Z" fill="black"/>
<path d="M79.9999 133.334H62.2222V142.223H97.7777V133.334H88.8888V124.445H79.9999V133.334Z" fill="black"/>
<path d="M97.7777 88.8891V80.0002H88.8889V71.1113H80V80.0002H71.1111V88.8891H80V97.778H88.8889V88.8891H97.7777Z" fill="black"/>
<path d="M133.333 88.8887H142.222V97.7776H133.333V88.8887Z" fill="black"/>
<path d="M97.7778 88.8887H124.444V97.7776H97.7778V88.8887Z" fill="black"/>
<path d="M133.333 62.2227H124.444V71.1115H115.556V80.0004H124.444V88.8893H133.333V80.0004H142.222V71.1115H133.333V62.2227Z" fill="black"/>
<path d="M88.8889 97.7773H97.7778V124.444H88.8889V97.7773Z" fill="black"/>
<path d="M62.2222 124.444H71.1111V115.555H79.9999V106.666H71.1111V88.8887H62.2222V124.444Z" fill="black"/>
</g>
<defs>
<clipPath id="clip0_339_15161">
<rect width="160" height="160" rx="8" fill="white"/>
</clipPath>
</defs>
</svg>
