<svg width="193" height="73" viewBox="0 0 193 73" fill="none" xmlns="http://www.w3.org/2000/svg">
<rect y="0.375" width="193" height="72" rx="8" fill="white"/>
<g clip-path="url(#clip0_339_15191)">
<path d="M22.512 12.375H49.488C55.2938 12.375 60 17.0812 60 22.887V49.863C60 55.6688 55.2938 60.375 49.488 60.375H22.512C16.7062 60.375 12 55.6688 12 49.863V22.887C12 17.0812 16.7062 12.375 22.512 12.375Z" fill="url(#paint0_linear_339_15191)"/>
<path d="M27.3829 47.2134L27.3874 47.2149L25.7462 50.0574C25.1472 51.095 23.8204 51.4505 22.7828 50.8515C21.7453 50.2524 21.3897 48.9257 21.9887 47.888L23.1977 45.794L23.3138 45.593C23.521 45.2953 24.0323 44.7812 25.0551 44.8779C25.0551 44.8779 27.462 45.1391 27.6362 46.3901C27.6362 46.3901 27.6598 46.8017 27.3829 47.2134ZM50.6597 39.9534H45.5421C45.1935 39.93 45.0415 39.8055 44.9815 39.7331L44.9777 39.7265L39.4995 30.2379L39.4924 30.2426L39.1639 29.7716C38.6254 28.9481 37.7704 31.0541 37.7704 31.0541C36.7495 33.4008 37.9153 36.0688 38.3216 36.8752L45.9308 50.0546C46.5296 51.092 47.8564 51.4477 48.8942 50.8485C49.9316 50.2494 50.2873 48.9227 49.6881 47.885L47.7855 44.5895C47.7486 44.5097 47.6845 44.2929 48.0746 44.292H50.6597C51.8578 44.292 52.8291 43.3207 52.8291 42.1226C52.8291 40.9245 51.8578 39.9534 50.6597 39.9534ZM40.7196 42.9024C40.7196 42.9024 40.9928 44.292 39.9358 44.292H21.0173C19.8192 44.292 18.8479 43.3207 18.8479 42.1226C18.8479 40.9245 19.8192 39.9532 21.0173 39.9532H25.881C26.6663 39.9078 26.8523 39.4545 26.8523 39.4545L26.8568 39.4567L33.2055 28.4602L33.2036 28.4598C33.3193 28.2474 33.223 28.0466 33.2063 28.0149L31.1095 24.3832C30.5104 23.3458 30.8659 22.0188 31.9035 21.42C32.9412 20.8209 34.2679 21.1762 34.867 22.2138L35.8393 23.8982L36.81 22.2168C37.4091 21.1794 38.7358 20.8237 39.7735 21.423C40.8111 22.022 41.1666 23.3486 40.5675 24.3862L31.7329 39.6881C31.6943 39.7813 31.6825 39.9275 31.9699 39.9532H37.2506L37.2518 40.0048C37.2518 40.0048 40.3039 40.0522 40.7196 42.9024Z" fill="white"/>
</g>
<path d="M75.22 22.237H72.224V21.075H79.728V22.237H76.746V30.875H75.22V22.237ZM81.7336 31.015C81.2763 31.015 80.8656 30.9217 80.5016 30.735C80.1469 30.5483 79.8669 30.2917 79.6616 29.965C79.4656 29.629 79.3676 29.251 79.3676 28.831C79.3676 28.1217 79.6383 27.5803 80.1796 27.207C80.7209 26.8243 81.4909 26.633 82.4896 26.633H83.8056V26.283C83.8056 25.8163 83.6796 25.457 83.4276 25.205C83.1756 24.953 82.8069 24.827 82.3216 24.827C81.9016 24.827 81.5096 24.911 81.1456 25.079C80.7816 25.2377 80.4829 25.471 80.2496 25.779L79.5916 24.953C79.9276 24.561 80.3336 24.2623 80.8096 24.057C81.2949 23.8423 81.8176 23.735 82.3776 23.735C83.2736 23.735 83.9689 23.9543 84.4636 24.393C84.9583 24.8223 85.2056 25.4337 85.2056 26.227V29.475C85.2056 29.895 85.2616 30.3617 85.3736 30.875H84.1556C84.0623 30.651 83.9969 30.3383 83.9596 29.937H83.9316C83.3996 30.6557 82.6669 31.015 81.7336 31.015ZM81.9996 29.937C82.5036 29.937 82.9283 29.8017 83.2736 29.531C83.6283 29.251 83.8056 28.915 83.8056 28.523V27.599H82.4336C81.8829 27.599 81.4583 27.7063 81.1596 27.921C80.8703 28.1263 80.7256 28.4297 80.7256 28.831C80.7256 29.1763 80.8376 29.447 81.0616 29.643C81.2949 29.839 81.6076 29.937 81.9996 29.937ZM81.9016 23.119C81.9016 22.8763 81.9483 22.6803 82.0416 22.531C82.1443 22.3723 82.2889 22.209 82.4756 22.041C82.6249 21.901 82.7323 21.7797 82.7976 21.677C82.8723 21.5743 82.9096 21.453 82.9096 21.313C82.9096 21.033 82.7276 20.893 82.3636 20.893C82.0089 20.893 81.7149 21.1077 81.4816 21.537L80.8796 20.991C81.0289 20.7017 81.2436 20.4777 81.5236 20.319C81.8036 20.151 82.1209 20.067 82.4756 20.067C82.9236 20.067 83.2783 20.1697 83.5396 20.375C83.8009 20.5803 83.9316 20.8697 83.9316 21.243C83.9316 21.4763 83.8803 21.6723 83.7776 21.831C83.6843 21.9897 83.5443 22.1623 83.3576 22.349C83.2083 22.5077 83.0963 22.643 83.0216 22.755C82.9563 22.8577 82.9236 22.979 82.9236 23.119H81.9016ZM87.8874 22.797C87.598 22.797 87.3694 22.7177 87.2014 22.559C87.0334 22.4003 86.9494 22.1857 86.9494 21.915C86.9494 21.6443 87.0334 21.4297 87.2014 21.271C87.3694 21.1123 87.598 21.033 87.8874 21.033C88.1767 21.033 88.4054 21.1123 88.5734 21.271C88.7507 21.4297 88.8394 21.6443 88.8394 21.915C88.8394 22.1857 88.7507 22.4003 88.5734 22.559C88.4054 22.7177 88.1767 22.797 87.8874 22.797ZM87.2014 23.875H88.5874V30.875H87.2014V23.875ZM95.6733 27.319L93.3773 23.875H94.9173L96.3873 26.297L97.8573 23.875H99.3973L97.1153 27.319L99.5793 30.875H98.0253L96.3873 28.243L94.7493 30.875H93.1953L95.6733 27.319ZM103.002 31.015C102.199 31.015 101.588 30.7537 101.168 30.231C100.757 29.699 100.552 28.9197 100.552 27.893V23.875H101.938V27.907C101.938 28.579 102.055 29.0783 102.288 29.405C102.521 29.7317 102.876 29.895 103.352 29.895C103.912 29.895 104.374 29.685 104.738 29.265C105.111 28.845 105.298 28.313 105.298 27.669V23.875H106.684V29.293C106.684 29.797 106.726 30.3243 106.81 30.875H105.508C105.433 30.4737 105.391 30.0583 105.382 29.629H105.34C105.153 30.0583 104.845 30.399 104.416 30.651C103.996 30.8937 103.525 31.015 103.002 31.015ZM111.468 31.015C110.394 31.015 109.55 30.693 108.934 30.049C108.318 29.3957 108.01 28.5043 108.01 27.375C108.01 26.2457 108.318 25.359 108.934 24.715C109.55 24.0617 110.394 23.735 111.468 23.735C112.541 23.735 113.386 24.0617 114.002 24.715C114.627 25.359 114.94 26.2457 114.94 27.375C114.94 28.5043 114.627 29.3957 114.002 30.049C113.386 30.693 112.541 31.015 111.468 31.015ZM111.468 29.965C112.112 29.965 112.62 29.7363 112.994 29.279C113.367 28.8123 113.554 28.1777 113.554 27.375C113.554 26.5723 113.367 25.9423 112.994 25.485C112.62 25.0183 112.112 24.785 111.468 24.785C110.814 24.785 110.306 25.0183 109.942 25.485C109.578 25.9423 109.396 26.5723 109.396 27.375C109.396 28.1777 109.578 28.8123 109.942 29.279C110.306 29.7363 110.814 29.965 111.468 29.965ZM113.456 19.913H114.534L113.652 21.383H112.798L113.456 19.913ZM111.02 21.019H111.902L113.582 23.119H112.364L111.468 21.929L110.558 23.119H109.354L111.02 21.019ZM116.206 25.667C116.206 24.799 116.187 24.2017 116.15 23.875H117.438C117.485 24.2203 117.508 24.631 117.508 25.107H117.55C117.737 24.687 118.04 24.3557 118.46 24.113C118.889 23.861 119.365 23.735 119.888 23.735C121.531 23.735 122.352 24.799 122.352 26.927V30.875H120.966V26.913C120.966 26.213 120.849 25.695 120.616 25.359C120.383 25.023 120.023 24.855 119.538 24.855C118.969 24.855 118.502 25.0603 118.138 25.471C117.774 25.8817 117.592 26.4043 117.592 27.039V30.875H116.206V25.667ZM130.02 23.875V30.637C130.02 31.7757 129.735 32.639 129.166 33.227C128.606 33.815 127.78 34.109 126.688 34.109C126.184 34.109 125.703 34.0483 125.246 33.927C124.798 33.815 124.396 33.647 124.042 33.423L124.504 32.443C125.213 32.7883 125.922 32.961 126.632 32.961C128.013 32.961 128.704 32.1163 128.704 30.427V29.937C128.517 30.2637 128.242 30.5157 127.878 30.693C127.523 30.8703 127.108 30.959 126.632 30.959C125.689 30.959 124.952 30.6323 124.42 29.979C123.888 29.3257 123.622 28.4203 123.622 27.263C123.622 26.1617 123.883 25.2983 124.406 24.673C124.928 24.0477 125.647 23.735 126.562 23.735C127.047 23.735 127.472 23.833 127.836 24.029C128.2 24.2157 128.489 24.4863 128.704 24.841H128.732L128.872 23.875H130.02ZM128.634 26.927C128.634 26.2457 128.475 25.7183 128.158 25.345C127.85 24.9717 127.416 24.785 126.856 24.785C126.277 24.785 125.824 25.009 125.498 25.457C125.171 25.8957 125.008 26.5117 125.008 27.305C125.008 28.117 125.166 28.747 125.484 29.195C125.81 29.6337 126.268 29.853 126.856 29.853C127.416 29.853 127.85 29.685 128.158 29.349C128.475 29.013 128.634 28.5417 128.634 27.935V26.927ZM137.68 31.015C137.026 31.015 136.513 30.819 136.14 30.427C135.776 30.0257 135.594 29.475 135.594 28.775V24.939H134.334V23.875H135.594V22.027L136.924 21.635H136.98V23.875H138.982V24.939H136.98V28.607C136.98 29.0643 137.068 29.4003 137.246 29.615C137.432 29.8297 137.712 29.937 138.086 29.937C138.459 29.937 138.79 29.881 139.08 29.769L139.164 30.763C138.818 30.931 138.324 31.015 137.68 31.015ZM140.53 25.583C140.53 24.7897 140.516 24.2203 140.488 23.875H141.79C141.828 24.2483 141.846 24.659 141.846 25.107V25.247H141.888C142.075 24.771 142.369 24.4023 142.77 24.141C143.181 23.8703 143.662 23.735 144.212 23.735C144.362 23.735 144.497 23.749 144.618 23.777V24.897C144.553 24.8783 144.408 24.869 144.184 24.869C143.774 24.869 143.391 24.9903 143.036 25.233C142.691 25.4663 142.416 25.7883 142.21 26.199C142.014 26.6003 141.916 27.0437 141.916 27.529V30.875H140.53V25.583ZM151.663 27.907H146.679C146.754 28.5417 146.955 29.0223 147.281 29.349C147.617 29.6757 148.075 29.839 148.653 29.839C149.475 29.839 150.137 29.517 150.641 28.873L151.411 29.615C151.141 30.0537 150.753 30.399 150.249 30.651C149.745 30.8937 149.19 31.015 148.583 31.015C147.538 31.015 146.721 30.6977 146.133 30.063C145.555 29.419 145.265 28.5277 145.265 27.389C145.265 26.2503 145.559 25.359 146.147 24.715C146.735 24.0617 147.543 23.735 148.569 23.735C149.54 23.735 150.296 24.057 150.837 24.701C151.388 25.3357 151.663 26.227 151.663 27.375V27.907ZM150.347 26.815C150.347 26.2083 150.184 25.7323 149.857 25.387C149.531 25.0417 149.083 24.869 148.513 24.869C147.981 24.869 147.557 25.0463 147.239 25.401C146.922 25.7557 146.731 26.2597 146.665 26.913H150.347V26.815ZM148.093 21.019H148.989L150.655 23.119H149.451L148.541 21.929L147.631 23.119H146.427L148.093 21.019ZM152.929 25.667C152.929 24.799 152.91 24.2017 152.873 23.875H154.161C154.207 24.2203 154.231 24.631 154.231 25.107H154.273C154.459 24.687 154.763 24.3557 155.183 24.113C155.612 23.861 156.088 23.735 156.611 23.735C158.253 23.735 159.075 24.799 159.075 26.927V30.875H157.689V26.913C157.689 26.213 157.572 25.695 157.339 25.359C157.105 25.023 156.746 24.855 156.261 24.855C155.691 24.855 155.225 25.0603 154.861 25.471C154.497 25.8817 154.315 26.4043 154.315 27.039V30.875H152.929V25.667Z" fill="black"/>
<path d="M79.938 50.787H75.6L74.97 52.875H72.27L76.626 40.275H78.912L83.268 52.875H80.568L79.938 50.787ZM79.308 48.717L77.778 43.677L76.23 48.717H79.308ZM84.4853 46.269C84.4853 45.297 84.4613 44.499 84.4133 43.875H86.5733C86.6093 44.235 86.6273 44.631 86.6273 45.063H86.6633C86.9633 44.631 87.3533 44.295 87.8333 44.055C88.3133 43.815 88.8473 43.695 89.4353 43.695C90.5753 43.695 91.4753 44.115 92.1353 44.955C92.7953 45.795 93.1253 46.941 93.1253 48.393C93.1253 49.845 92.7893 50.985 92.1173 51.813C91.4573 52.641 90.5393 53.055 89.3633 53.055C88.7873 53.055 88.2773 52.959 87.8333 52.767C87.3893 52.575 87.0593 52.305 86.8433 51.957H86.7893V57.231H84.4853V46.269ZM88.8593 51.345C89.4953 51.345 89.9813 51.087 90.3173 50.571C90.6533 50.043 90.8213 49.293 90.8213 48.321C90.8213 46.413 90.1793 45.459 88.8953 45.459C88.2713 45.459 87.7613 45.645 87.3653 46.017C86.9813 46.377 86.7893 46.857 86.7893 47.457V49.311C86.7893 49.887 86.9873 50.373 87.3833 50.769C87.7793 51.153 88.2713 51.345 88.8593 51.345ZM94.663 46.269C94.663 45.297 94.639 44.499 94.591 43.875H96.751C96.787 44.235 96.805 44.631 96.805 45.063H96.841C97.141 44.631 97.531 44.295 98.011 44.055C98.491 43.815 99.025 43.695 99.613 43.695C100.753 43.695 101.653 44.115 102.313 44.955C102.973 45.795 103.303 46.941 103.303 48.393C103.303 49.845 102.967 50.985 102.295 51.813C101.635 52.641 100.717 53.055 99.541 53.055C98.965 53.055 98.455 52.959 98.011 52.767C97.567 52.575 97.237 52.305 97.021 51.957H96.967V57.231H94.663V46.269ZM99.037 51.345C99.673 51.345 100.159 51.087 100.495 50.571C100.831 50.043 100.999 49.293 100.999 48.321C100.999 46.413 100.357 45.459 99.073 45.459C98.449 45.459 97.939 45.645 97.543 46.017C97.159 46.377 96.967 46.857 96.967 47.457V49.311C96.967 49.887 97.165 50.373 97.561 50.769C97.957 51.153 98.449 51.345 99.037 51.345ZM113.02 53.055C112.072 53.055 111.214 52.863 110.446 52.479C109.69 52.095 109.072 51.543 108.592 50.823L110.086 49.383C110.482 49.851 110.962 50.235 111.526 50.535C112.09 50.835 112.618 50.985 113.11 50.985C113.662 50.985 114.106 50.859 114.442 50.607C114.778 50.355 114.946 50.025 114.946 49.617C114.946 49.317 114.892 49.071 114.784 48.879C114.676 48.687 114.472 48.495 114.172 48.303C113.872 48.099 113.38 47.829 112.696 47.493C111.796 47.049 111.088 46.635 110.572 46.251C110.056 45.867 109.672 45.453 109.42 45.009C109.18 44.553 109.06 44.025 109.06 43.425C109.06 42.765 109.234 42.183 109.582 41.679C109.93 41.175 110.422 40.785 111.058 40.509C111.694 40.233 112.426 40.095 113.254 40.095C114.166 40.095 114.97 40.269 115.666 40.617C116.374 40.965 116.89 41.445 117.214 42.057L115.576 43.281C114.976 42.537 114.238 42.165 113.362 42.165C112.81 42.165 112.384 42.273 112.084 42.489C111.784 42.705 111.634 43.011 111.634 43.407C111.634 43.647 111.706 43.863 111.85 44.055C112.006 44.247 112.282 44.457 112.678 44.685C113.074 44.913 113.668 45.213 114.46 45.585C115.228 45.945 115.828 46.305 116.26 46.665C116.704 47.025 117.022 47.427 117.214 47.871C117.406 48.315 117.502 48.843 117.502 49.455C117.502 50.175 117.316 50.811 116.944 51.363C116.584 51.903 116.062 52.323 115.378 52.623C114.706 52.911 113.92 53.055 113.02 53.055ZM122.79 53.055C121.866 53.055 121.146 52.803 120.63 52.299C120.114 51.795 119.856 51.087 119.856 50.175V45.585H118.218V43.875H119.856V41.553L122.088 40.905H122.16V43.875H124.77V45.585H122.16V49.833C122.16 50.349 122.28 50.727 122.52 50.967C122.76 51.207 123.126 51.327 123.618 51.327C124.086 51.327 124.524 51.255 124.932 51.111L125.04 52.677C124.5 52.929 123.75 53.055 122.79 53.055ZM130.218 53.055C128.766 53.055 127.632 52.641 126.816 51.813C126 50.985 125.592 49.839 125.592 48.375C125.592 46.911 126 45.765 126.816 44.937C127.632 44.109 128.766 43.695 130.218 43.695C131.67 43.695 132.804 44.109 133.62 44.937C134.448 45.765 134.862 46.911 134.862 48.375C134.862 49.839 134.448 50.985 133.62 51.813C132.804 52.641 131.67 53.055 130.218 53.055ZM130.218 51.345C130.95 51.345 131.526 51.081 131.946 50.553C132.366 50.025 132.576 49.299 132.576 48.375C132.576 47.451 132.366 46.725 131.946 46.197C131.526 45.669 130.95 45.405 130.218 45.405C129.486 45.405 128.91 45.669 128.49 46.197C128.082 46.725 127.878 47.451 127.878 48.375C127.878 49.299 128.082 50.025 128.49 50.553C128.91 51.081 129.486 51.345 130.218 51.345ZM136.411 46.071C136.411 45.051 136.393 44.319 136.357 43.875H138.535C138.583 44.343 138.607 44.871 138.607 45.459V45.639H138.679C138.907 45.051 139.309 44.583 139.885 44.235C140.461 43.875 141.121 43.695 141.865 43.695C142.009 43.695 142.189 43.713 142.405 43.749V45.567C142.357 45.543 142.213 45.531 141.973 45.531C141.397 45.531 140.857 45.687 140.353 45.999C139.861 46.311 139.465 46.731 139.165 47.259C138.865 47.775 138.715 48.333 138.715 48.933V52.875H136.411V46.071ZM151.792 49.221H145.528C145.72 50.493 146.458 51.129 147.742 51.129C148.27 51.129 148.726 51.039 149.11 50.859C149.506 50.679 149.89 50.379 150.262 49.959L151.504 51.147C151.156 51.723 150.628 52.185 149.92 52.533C149.224 52.881 148.456 53.055 147.616 53.055C146.212 53.055 145.12 52.647 144.34 51.831C143.56 51.003 143.17 49.863 143.17 48.411C143.17 46.947 143.56 45.795 144.34 44.955C145.132 44.115 146.218 43.695 147.598 43.695C148.918 43.695 149.944 44.109 150.676 44.937C151.42 45.765 151.792 46.917 151.792 48.393V49.221ZM149.542 47.547C149.542 46.935 149.362 46.455 149.002 46.107C148.654 45.747 148.168 45.567 147.544 45.567C146.98 45.567 146.524 45.753 146.176 46.125C145.828 46.485 145.606 46.995 145.51 47.655H149.542V47.547Z" fill="black"/>
<defs>
<linearGradient id="paint0_linear_339_15191" x1="36" y1="12.375" x2="36" y2="60.375" gradientUnits="userSpaceOnUse">
<stop stop-color="#17C9FB"/>
<stop offset="1" stop-color="#1A74E8"/>
</linearGradient>
<clipPath id="clip0_339_15191">
<rect width="48" height="48" fill="white" transform="translate(12 12.375)"/>
</clipPath>
</defs>
</svg>
