<svg width="193" height="76" viewBox="0 0 193 76" fill="none" xmlns="http://www.w3.org/2000/svg">
<rect width="193" height="75.375" rx="8" fill="white"/>
<g clip-path="url(#clip0_339_15182)">
<path d="M47.4025 45.5383C53.4887 42.1965 58.1025 39.6501 58.5002 39.4521C59.7724 38.7756 61.0862 36.9849 58.5002 35.5941C57.6653 35.1566 53.17 32.6895 47.4025 29.5078L39.4071 37.5825L47.4025 45.5381V45.5383Z" fill="#FFD900"/>
<path d="M39.407 37.584L13.9489 63.242C14.5464 63.3212 15.221 63.1627 16.0164 62.7255C17.6863 61.8114 35.3885 52.1441 47.4024 45.5417L39.407 37.584Z" fill="#F43249"/>
<path d="M39.4071 37.5832L47.4024 29.5483C47.4024 29.5483 17.8071 13.3969 16.0164 12.4434C15.3418 12.0439 14.5858 11.9252 13.9093 12.0439L39.4071 37.5832V37.5832Z" fill="#00EE76"/>
<path d="M39.4071 37.5823L13.9093 12.043C12.8745 12.2822 12 13.1965 12 15.0662V60.2172C12 61.9285 12.6767 63.1611 13.9489 63.28L39.4071 37.5823Z" fill="#00D3FF"/>
</g>
<path d="M75.22 23.5495H72.224V22.3875H79.728V23.5495H76.746V32.1875H75.22V23.5495ZM81.7336 32.3275C81.2763 32.3275 80.8656 32.2342 80.5016 32.0475C80.1469 31.8608 79.8669 31.6042 79.6616 31.2775C79.4656 30.9415 79.3676 30.5635 79.3676 30.1435C79.3676 29.4342 79.6383 28.8928 80.1796 28.5195C80.7209 28.1368 81.4909 27.9455 82.4896 27.9455H83.8056V27.5955C83.8056 27.1288 83.6796 26.7695 83.4276 26.5175C83.1756 26.2655 82.8069 26.1395 82.3216 26.1395C81.9016 26.1395 81.5096 26.2235 81.1456 26.3915C80.7816 26.5502 80.4829 26.7835 80.2496 27.0915L79.5916 26.2655C79.9276 25.8735 80.3336 25.5748 80.8096 25.3695C81.2949 25.1548 81.8176 25.0475 82.3776 25.0475C83.2736 25.0475 83.9689 25.2668 84.4636 25.7055C84.9583 26.1348 85.2056 26.7462 85.2056 27.5395V30.7875C85.2056 31.2075 85.2616 31.6742 85.3736 32.1875H84.1556C84.0623 31.9635 83.9969 31.6508 83.9596 31.2495H83.9316C83.3996 31.9682 82.6669 32.3275 81.7336 32.3275ZM81.9996 31.2495C82.5036 31.2495 82.9283 31.1142 83.2736 30.8435C83.6283 30.5635 83.8056 30.2275 83.8056 29.8355V28.9115H82.4336C81.8829 28.9115 81.4583 29.0188 81.1596 29.2335C80.8703 29.4388 80.7256 29.7422 80.7256 30.1435C80.7256 30.4888 80.8376 30.7595 81.0616 30.9555C81.2949 31.1515 81.6076 31.2495 81.9996 31.2495ZM81.9016 24.4315C81.9016 24.1888 81.9483 23.9928 82.0416 23.8435C82.1443 23.6848 82.2889 23.5215 82.4756 23.3535C82.6249 23.2135 82.7323 23.0922 82.7976 22.9895C82.8723 22.8868 82.9096 22.7655 82.9096 22.6255C82.9096 22.3455 82.7276 22.2055 82.3636 22.2055C82.0089 22.2055 81.7149 22.4202 81.4816 22.8495L80.8796 22.3035C81.0289 22.0142 81.2436 21.7902 81.5236 21.6315C81.8036 21.4635 82.1209 21.3795 82.4756 21.3795C82.9236 21.3795 83.2783 21.4822 83.5396 21.6875C83.8009 21.8928 83.9316 22.1822 83.9316 22.5555C83.9316 22.7888 83.8803 22.9848 83.7776 23.1435C83.6843 23.3022 83.5443 23.4748 83.3576 23.6615C83.2083 23.8202 83.0963 23.9555 83.0216 24.0675C82.9563 24.1702 82.9236 24.2915 82.9236 24.4315H81.9016ZM87.8874 24.1095C87.598 24.1095 87.3694 24.0302 87.2014 23.8715C87.0334 23.7128 86.9494 23.4982 86.9494 23.2275C86.9494 22.9568 87.0334 22.7422 87.2014 22.5835C87.3694 22.4248 87.598 22.3455 87.8874 22.3455C88.1767 22.3455 88.4054 22.4248 88.5734 22.5835C88.7507 22.7422 88.8394 22.9568 88.8394 23.2275C88.8394 23.4982 88.7507 23.7128 88.5734 23.8715C88.4054 24.0302 88.1767 24.1095 87.8874 24.1095ZM87.2014 25.1875H88.5874V32.1875H87.2014V25.1875ZM95.6733 28.6315L93.3773 25.1875H94.9173L96.3873 27.6095L97.8573 25.1875H99.3973L97.1153 28.6315L99.5793 32.1875H98.0253L96.3873 29.5555L94.7493 32.1875H93.1953L95.6733 28.6315ZM103.002 32.3275C102.199 32.3275 101.588 32.0662 101.168 31.5435C100.757 31.0115 100.552 30.2322 100.552 29.2055V25.1875H101.938V29.2195C101.938 29.8915 102.055 30.3908 102.288 30.7175C102.521 31.0442 102.876 31.2075 103.352 31.2075C103.912 31.2075 104.374 30.9975 104.738 30.5775C105.111 30.1575 105.298 29.6255 105.298 28.9815V25.1875H106.684V30.6055C106.684 31.1095 106.726 31.6368 106.81 32.1875H105.508C105.433 31.7862 105.391 31.3708 105.382 30.9415H105.34C105.153 31.3708 104.845 31.7115 104.416 31.9635C103.996 32.2062 103.525 32.3275 103.002 32.3275ZM111.468 32.3275C110.394 32.3275 109.55 32.0055 108.934 31.3615C108.318 30.7082 108.01 29.8168 108.01 28.6875C108.01 27.5582 108.318 26.6715 108.934 26.0275C109.55 25.3742 110.394 25.0475 111.468 25.0475C112.541 25.0475 113.386 25.3742 114.002 26.0275C114.627 26.6715 114.94 27.5582 114.94 28.6875C114.94 29.8168 114.627 30.7082 114.002 31.3615C113.386 32.0055 112.541 32.3275 111.468 32.3275ZM111.468 31.2775C112.112 31.2775 112.62 31.0488 112.994 30.5915C113.367 30.1248 113.554 29.4902 113.554 28.6875C113.554 27.8848 113.367 27.2548 112.994 26.7975C112.62 26.3308 112.112 26.0975 111.468 26.0975C110.814 26.0975 110.306 26.3308 109.942 26.7975C109.578 27.2548 109.396 27.8848 109.396 28.6875C109.396 29.4902 109.578 30.1248 109.942 30.5915C110.306 31.0488 110.814 31.2775 111.468 31.2775ZM113.456 21.2255H114.534L113.652 22.6955H112.798L113.456 21.2255ZM111.02 22.3315H111.902L113.582 24.4315H112.364L111.468 23.2415L110.558 24.4315H109.354L111.02 22.3315ZM116.206 26.9795C116.206 26.1115 116.187 25.5142 116.15 25.1875H117.438C117.485 25.5328 117.508 25.9435 117.508 26.4195H117.55C117.737 25.9995 118.04 25.6682 118.46 25.4255C118.889 25.1735 119.365 25.0475 119.888 25.0475C121.531 25.0475 122.352 26.1115 122.352 28.2395V32.1875H120.966V28.2255C120.966 27.5255 120.849 27.0075 120.616 26.6715C120.383 26.3355 120.023 26.1675 119.538 26.1675C118.969 26.1675 118.502 26.3728 118.138 26.7835C117.774 27.1942 117.592 27.7168 117.592 28.3515V32.1875H116.206V26.9795ZM130.02 25.1875V31.9495C130.02 33.0882 129.735 33.9515 129.166 34.5395C128.606 35.1275 127.78 35.4215 126.688 35.4215C126.184 35.4215 125.703 35.3608 125.246 35.2395C124.798 35.1275 124.396 34.9595 124.042 34.7355L124.504 33.7555C125.213 34.1008 125.922 34.2735 126.632 34.2735C128.013 34.2735 128.704 33.4288 128.704 31.7395V31.2495C128.517 31.5762 128.242 31.8282 127.878 32.0055C127.523 32.1828 127.108 32.2715 126.632 32.2715C125.689 32.2715 124.952 31.9448 124.42 31.2915C123.888 30.6382 123.622 29.7328 123.622 28.5755C123.622 27.4742 123.883 26.6108 124.406 25.9855C124.928 25.3602 125.647 25.0475 126.562 25.0475C127.047 25.0475 127.472 25.1455 127.836 25.3415C128.2 25.5282 128.489 25.7988 128.704 26.1535H128.732L128.872 25.1875H130.02ZM128.634 28.2395C128.634 27.5582 128.475 27.0308 128.158 26.6575C127.85 26.2842 127.416 26.0975 126.856 26.0975C126.277 26.0975 125.824 26.3215 125.498 26.7695C125.171 27.2082 125.008 27.8242 125.008 28.6175C125.008 29.4295 125.166 30.0595 125.484 30.5075C125.81 30.9462 126.268 31.1655 126.856 31.1655C127.416 31.1655 127.85 30.9975 128.158 30.6615C128.475 30.3255 128.634 29.8542 128.634 29.2475V28.2395ZM137.68 32.3275C137.026 32.3275 136.513 32.1315 136.14 31.7395C135.776 31.3382 135.594 30.7875 135.594 30.0875V26.2515H134.334V25.1875H135.594V23.3395L136.924 22.9475H136.98V25.1875H138.982V26.2515H136.98V29.9195C136.98 30.3768 137.068 30.7128 137.246 30.9275C137.432 31.1422 137.712 31.2495 138.086 31.2495C138.459 31.2495 138.79 31.1935 139.08 31.0815L139.164 32.0755C138.818 32.2435 138.324 32.3275 137.68 32.3275ZM140.53 26.8955C140.53 26.1022 140.516 25.5328 140.488 25.1875H141.79C141.828 25.5608 141.846 25.9715 141.846 26.4195V26.5595H141.888C142.075 26.0835 142.369 25.7148 142.77 25.4535C143.181 25.1828 143.662 25.0475 144.212 25.0475C144.362 25.0475 144.497 25.0615 144.618 25.0895V26.2095C144.553 26.1908 144.408 26.1815 144.184 26.1815C143.774 26.1815 143.391 26.3028 143.036 26.5455C142.691 26.7788 142.416 27.1008 142.21 27.5115C142.014 27.9128 141.916 28.3562 141.916 28.8415V32.1875H140.53V26.8955ZM151.663 29.2195H146.679C146.754 29.8542 146.955 30.3348 147.281 30.6615C147.617 30.9882 148.075 31.1515 148.653 31.1515C149.475 31.1515 150.137 30.8295 150.641 30.1855L151.411 30.9275C151.141 31.3662 150.753 31.7115 150.249 31.9635C149.745 32.2062 149.19 32.3275 148.583 32.3275C147.538 32.3275 146.721 32.0102 146.133 31.3755C145.555 30.7315 145.265 29.8402 145.265 28.7015C145.265 27.5628 145.559 26.6715 146.147 26.0275C146.735 25.3742 147.543 25.0475 148.569 25.0475C149.54 25.0475 150.296 25.3695 150.837 26.0135C151.388 26.6482 151.663 27.5395 151.663 28.6875V29.2195ZM150.347 28.1275C150.347 27.5208 150.184 27.0448 149.857 26.6995C149.531 26.3542 149.083 26.1815 148.513 26.1815C147.981 26.1815 147.557 26.3588 147.239 26.7135C146.922 27.0682 146.731 27.5722 146.665 28.2255H150.347V28.1275ZM148.093 22.3315H148.989L150.655 24.4315H149.451L148.541 23.2415L147.631 24.4315H146.427L148.093 22.3315ZM152.929 26.9795C152.929 26.1115 152.91 25.5142 152.873 25.1875H154.161C154.207 25.5328 154.231 25.9435 154.231 26.4195H154.273C154.459 25.9995 154.763 25.6682 155.183 25.4255C155.612 25.1735 156.088 25.0475 156.611 25.0475C158.253 25.0475 159.075 26.1115 159.075 28.2395V32.1875H157.689V28.2255C157.689 27.5255 157.572 27.0075 157.339 26.6715C157.105 26.3355 156.746 26.1675 156.261 26.1675C155.691 26.1675 155.225 26.3728 154.861 26.7835C154.497 27.1942 154.315 27.7168 154.315 28.3515V32.1875H152.929V26.9795Z" fill="black"/>
<path d="M82.872 47.3475V54.1875H80.91L80.676 53.4855C79.86 54.0735 78.912 54.3675 77.832 54.3675C76.164 54.3675 74.868 53.7975 73.944 52.6575C73.02 51.5175 72.558 49.9275 72.558 47.8875C72.558 46.5795 72.798 45.4395 73.278 44.4675C73.758 43.4835 74.436 42.7275 75.312 42.1995C76.188 41.6715 77.214 41.4075 78.39 41.4075C79.41 41.4075 80.298 41.6055 81.054 42.0015C81.822 42.3855 82.38 42.9255 82.728 43.6215L81.252 44.9175C80.952 44.4495 80.556 44.0955 80.064 43.8555C79.584 43.6035 79.032 43.4775 78.408 43.4775C77.352 43.4775 76.542 43.8555 75.978 44.6115C75.426 45.3675 75.15 46.4595 75.15 47.8875C75.15 49.3875 75.408 50.5275 75.924 51.3075C76.44 52.0755 77.19 52.4595 78.174 52.4595C78.966 52.4595 79.68 52.2675 80.316 51.8835V49.1835H77.58V47.3475H82.872ZM88.9618 54.3675C87.5098 54.3675 86.3758 53.9535 85.5598 53.1255C84.7438 52.2975 84.3358 51.1515 84.3358 49.6875C84.3358 48.2235 84.7438 47.0775 85.5598 46.2495C86.3758 45.4215 87.5098 45.0075 88.9618 45.0075C90.4138 45.0075 91.5478 45.4215 92.3638 46.2495C93.1918 47.0775 93.6058 48.2235 93.6058 49.6875C93.6058 51.1515 93.1918 52.2975 92.3638 53.1255C91.5478 53.9535 90.4138 54.3675 88.9618 54.3675ZM88.9618 52.6575C89.6938 52.6575 90.2698 52.3935 90.6898 51.8655C91.1098 51.3375 91.3198 50.6115 91.3198 49.6875C91.3198 48.7635 91.1098 48.0375 90.6898 47.5095C90.2698 46.9815 89.6938 46.7175 88.9618 46.7175C88.2298 46.7175 87.6538 46.9815 87.2338 47.5095C86.8258 48.0375 86.6218 48.7635 86.6218 49.6875C86.6218 50.6115 86.8258 51.3375 87.2338 51.8655C87.6538 52.3935 88.2298 52.6575 88.9618 52.6575ZM99.3856 54.3675C97.9336 54.3675 96.7996 53.9535 95.9836 53.1255C95.1676 52.2975 94.7596 51.1515 94.7596 49.6875C94.7596 48.2235 95.1676 47.0775 95.9836 46.2495C96.7996 45.4215 97.9336 45.0075 99.3856 45.0075C100.838 45.0075 101.972 45.4215 102.788 46.2495C103.616 47.0775 104.03 48.2235 104.03 49.6875C104.03 51.1515 103.616 52.2975 102.788 53.1255C101.972 53.9535 100.838 54.3675 99.3856 54.3675ZM99.3856 52.6575C100.118 52.6575 100.694 52.3935 101.114 51.8655C101.534 51.3375 101.744 50.6115 101.744 49.6875C101.744 48.7635 101.534 48.0375 101.114 47.5095C100.694 46.9815 100.118 46.7175 99.3856 46.7175C98.6536 46.7175 98.0776 46.9815 97.6576 47.5095C97.2496 48.0375 97.0456 48.7635 97.0456 49.6875C97.0456 50.6115 97.2496 51.3375 97.6576 51.8655C98.0776 52.3935 98.6536 52.6575 99.3856 52.6575ZM113.715 45.1875V53.8275C113.715 55.3515 113.337 56.4975 112.581 57.2655C111.825 58.0455 110.703 58.4355 109.215 58.4355C108.519 58.4355 107.859 58.3515 107.235 58.1835C106.623 58.0155 106.077 57.7755 105.597 57.4635L106.371 55.8975C106.803 56.1135 107.259 56.2815 107.739 56.4015C108.219 56.5335 108.675 56.5995 109.107 56.5995C109.923 56.5995 110.529 56.3415 110.925 55.8255C111.321 55.3215 111.519 54.5535 111.519 53.5215V53.2335C111.279 53.5575 110.949 53.8095 110.529 53.9895C110.109 54.1575 109.611 54.2415 109.035 54.2415C107.787 54.2415 106.815 53.8335 106.119 53.0175C105.435 52.2015 105.093 51.0495 105.093 49.5615C105.093 48.1215 105.423 47.0055 106.083 46.2135C106.743 45.4095 107.673 45.0075 108.873 45.0075C110.121 45.0075 111.027 45.4455 111.591 46.3215H111.627L111.807 45.1875H113.715ZM111.429 49.1295C111.429 48.3495 111.261 47.7555 110.925 47.3475C110.589 46.9275 110.103 46.7175 109.467 46.7175C108.795 46.7175 108.279 46.9695 107.919 47.4735C107.559 47.9655 107.379 48.6795 107.379 49.6155C107.379 50.5515 107.553 51.2595 107.901 51.7395C108.261 52.2195 108.783 52.4595 109.467 52.4595C110.103 52.4595 110.589 52.2735 110.925 51.9015C111.261 51.5175 111.429 50.9775 111.429 50.2815V49.1295ZM117.976 54.3675C117.208 54.3675 116.62 54.1635 116.212 53.7555C115.816 53.3355 115.618 52.7355 115.618 51.9555V40.8315H117.904V51.9915C117.904 52.2555 117.97 52.4535 118.102 52.5855C118.246 52.7055 118.456 52.7655 118.732 52.7655C119.008 52.7655 119.35 52.6875 119.758 52.5315L120.1 53.7555C119.56 54.1635 118.852 54.3675 117.976 54.3675ZM128.659 50.5335H122.395C122.587 51.8055 123.325 52.4415 124.609 52.4415C125.137 52.4415 125.593 52.3515 125.977 52.1715C126.373 51.9915 126.757 51.6915 127.129 51.2715L128.371 52.4595C128.023 53.0355 127.495 53.4975 126.787 53.8455C126.091 54.1935 125.323 54.3675 124.483 54.3675C123.079 54.3675 121.987 53.9595 121.207 53.1435C120.427 52.3155 120.037 51.1755 120.037 49.7235C120.037 48.2595 120.427 47.1075 121.207 46.2675C121.999 45.4275 123.085 45.0075 124.465 45.0075C125.785 45.0075 126.811 45.4215 127.543 46.2495C128.287 47.0775 128.659 48.2295 128.659 49.7055V50.5335ZM126.409 48.8595C126.409 48.2475 126.229 47.7675 125.869 47.4195C125.521 47.0595 125.035 46.8795 124.411 46.8795C123.847 46.8795 123.391 47.0655 123.043 47.4375C122.695 47.7975 122.473 48.3075 122.377 48.9675H126.409V48.8595ZM134.642 41.5875H138.836C140.324 41.5875 141.452 41.9295 142.22 42.6135C142.988 43.2855 143.372 44.2815 143.372 45.6015C143.372 46.9935 142.976 48.0555 142.184 48.7875C141.404 49.5075 140.258 49.8675 138.746 49.8675H137.234V54.1875H134.642V41.5875ZM138.962 47.8155C139.586 47.8155 140.054 47.6355 140.366 47.2755C140.69 46.9035 140.852 46.3695 140.852 45.6735C140.852 45.0135 140.678 44.5155 140.33 44.1795C139.994 43.8315 139.49 43.6575 138.818 43.6575H137.234V47.8155H138.962ZM147.419 54.3675C146.651 54.3675 146.063 54.1635 145.655 53.7555C145.259 53.3355 145.061 52.7355 145.061 51.9555V40.8315H147.347V51.9915C147.347 52.2555 147.413 52.4535 147.545 52.5855C147.689 52.7055 147.899 52.7655 148.175 52.7655C148.451 52.7655 148.793 52.6875 149.201 52.5315L149.543 53.7555C149.003 54.1635 148.295 54.3675 147.419 54.3675ZM153.067 54.3675C152.479 54.3675 151.951 54.2475 151.483 54.0075C151.015 53.7555 150.649 53.4135 150.385 52.9815C150.121 52.5375 149.989 52.0455 149.989 51.5055C149.989 50.5815 150.355 49.8735 151.087 49.3815C151.819 48.8895 152.863 48.6435 154.219 48.6435H155.623V48.2655C155.623 47.7855 155.479 47.4195 155.191 47.1675C154.915 46.9035 154.519 46.7715 154.003 46.7715C153.463 46.7715 152.947 46.8675 152.455 47.0595C151.963 47.2515 151.561 47.5155 151.249 47.8515L150.241 46.5195C150.733 46.0515 151.315 45.6855 151.987 45.4215C152.659 45.1455 153.355 45.0075 154.075 45.0075C155.275 45.0075 156.217 45.2895 156.901 45.8535C157.585 46.4175 157.927 47.1975 157.927 48.1935V52.2975C157.927 52.5735 157.945 52.8975 157.981 53.2695C158.029 53.6415 158.083 53.9475 158.143 54.1875H156.109C156.037 54.0315 155.983 53.8815 155.947 53.7375C155.911 53.5815 155.881 53.3715 155.857 53.1075H155.821C155.137 53.9475 154.219 54.3675 153.067 54.3675ZM153.625 52.6395C154.201 52.6395 154.675 52.4955 155.047 52.2075C155.431 51.9075 155.623 51.5295 155.623 51.0735V50.1735H154.147C153.535 50.1735 153.061 50.2875 152.725 50.5155C152.401 50.7435 152.239 51.0735 152.239 51.5055C152.239 51.8655 152.359 52.1475 152.599 52.3515C152.851 52.5435 153.193 52.6395 153.625 52.6395ZM167.833 45.1875L164.395 54.6015C164.023 55.6095 163.507 56.3655 162.847 56.8695C162.199 57.3855 161.419 57.6435 160.507 57.6435C160.027 57.6435 159.535 57.5775 159.031 57.4455V55.6275C159.175 55.6755 159.355 55.7175 159.571 55.7535C159.787 55.7895 159.979 55.8075 160.147 55.8075C160.675 55.8075 161.125 55.6215 161.497 55.2495C161.881 54.8895 162.223 54.3135 162.523 53.5215L159.175 45.1875H161.623L163.603 50.9475L165.385 45.1875H167.833Z" fill="black"/>
<defs>
<clipPath id="clip0_339_15182">
<rect width="48" height="51.375" fill="white" transform="translate(12 12)"/>
</clipPath>
</defs>
</svg>
