<svg width="66" height="70" viewBox="0 0 66 70" fill="none" xmlns="http://www.w3.org/2000/svg">
<path d="M23.625 55.3125C25.3509 55.3125 26.75 53.9134 26.75 52.1875C26.75 50.4616 25.3509 49.0625 23.625 49.0625C21.8991 49.0625 20.5 50.4616 20.5 52.1875C20.5 53.9134 21.8991 55.3125 23.625 55.3125Z" fill="white"/>
<path d="M43.9375 55.3125C45.6634 55.3125 47.0625 53.9134 47.0625 52.1875C47.0625 50.4616 45.6634 49.0625 43.9375 49.0625C42.2116 49.0625 40.8125 50.4616 40.8125 52.1875C40.8125 53.9134 42.2116 55.3125 43.9375 55.3125Z" fill="white"/>
<path d="M16.2589 24.0625H51.3036L46.1476 42.1085C45.961 42.7615 45.5668 43.3359 45.0247 43.7448C44.4825 44.1538 43.8219 44.375 43.1428 44.375H24.4197C23.7406 44.375 23.08 44.1538 22.5378 43.7448C21.9957 43.3359 21.6015 42.7615 21.4149 42.1085L14.3506 17.3832C14.2573 17.0568 14.0602 16.7696 13.7891 16.5651C13.518 16.3606 13.1877 16.25 12.8482 16.25H9.5625" stroke="white" stroke-width="2" stroke-linecap="round" stroke-linejoin="round"/>
</svg>
